<svg width="277" height="39" viewBox="0 0 277 39" fill="none" xmlns="http://www.w3.org/2000/svg">
<path d="M11.7227 26.3114V6.44238H16.1587V23.0764H25.9667V26.3114H11.7227Z" fill="#6A6A6A"/>
<path d="M38.9453 19.3435C39.0027 20.2444 38.8606 21.1469 38.5293 21.9866C38.1979 22.8263 37.6854 23.5826 37.0283 24.2015C35.4536 25.4274 33.4823 26.0298 31.4913 25.8935H30.3813V33.0935H25.9453V13.2275H31.9963C36.6283 13.2275 38.9446 15.2662 38.9453 19.3435ZM30.3823 22.6865H31.2313C32.1069 22.7558 32.9759 22.4887 33.6613 21.9395C34.1688 21.2521 34.448 20.4229 34.4597 19.5685C34.4713 18.7141 34.2149 17.8775 33.7263 17.1765C33.419 16.9041 33.0597 16.6969 32.67 16.5673C32.2804 16.4377 31.8685 16.3885 31.4593 16.4225H30.3823V22.6865Z" fill="#6A6A6A"/>
<path d="M40.8583 7.80957C43.4507 10.3307 45.2187 13.5778 45.9296 17.1234C46.6404 20.669 46.2607 24.3467 44.8404 27.6723C43.4202 30.9979 41.026 33.8153 37.9732 35.7535C34.9204 37.6918 31.3521 38.66 27.7383 38.5306C32.4387 36.7159 36.4223 33.4233 39.0893 29.1486C43.4913 22.2216 43.9183 14.0356 40.8583 7.80957Z" fill="#6A6A6A"/>
<path d="M5.42052 30.7325C2.82812 28.2114 1.06008 24.9642 0.349247 21.4186C-0.361582 17.873 0.0181279 14.1953 1.43837 10.8697C2.85862 7.54418 5.2528 4.72676 8.30561 2.78851C11.3584 0.850254 14.9267 -0.117926 18.5405 0.0114669C13.8401 1.82607 9.85649 5.11869 7.18952 9.39349C2.78552 16.3215 2.36052 24.5065 5.42052 30.7325Z" fill="#6A6A6A"/>
<path d="M55.2852 31.5774V12.7344H58.9312V28.5084H63.9852V31.5764L55.2852 31.5774Z" fill="#6A6A6A"/>
<path d="M75.5968 31.5777L74.4709 26.8217H69.3629L68.2368 31.5777H64.5898L69.4428 12.6577H74.3898L79.2568 31.5777H75.5968ZM73.7868 23.7167L72.7408 19.3337C72.6788 19.067 72.5382 18.4004 72.3188 17.3337C72.0995 16.267 71.9662 15.5517 71.9189 15.1877C71.8022 15.927 71.6545 16.741 71.4758 17.6297C71.2972 18.5184 70.8325 20.5484 70.0818 23.7197L73.7868 23.7167Z" fill="#6A6A6A"/>
<path d="M86.0667 31.5774H82.4337V15.8154H78.6797V12.7344H89.8207V15.8154H86.0677L86.0667 31.5774Z" fill="#6A6A6A"/>
<path d="M92.5664 31.5774V12.7344H95.9984V31.5774H92.5664Z" fill="#6A6A6A"/>
<path d="M106.647 15.5316C106.107 15.5498 105.584 15.727 105.144 16.0409C104.704 16.3549 104.366 16.7916 104.173 17.2965C103.496 18.8418 103.187 20.5226 103.268 22.2076C103.268 26.5729 104.452 28.7552 106.821 28.7546C107.971 28.7222 109.093 28.3936 110.079 27.8005V30.9165C108.967 31.5674 107.692 31.885 106.405 31.8315C105.412 31.8777 104.423 31.6694 103.533 31.2262C102.642 30.7831 101.88 30.1199 101.318 29.2996C100.013 27.1628 99.393 24.6779 99.541 22.1786C99.394 19.6621 100.034 17.1622 101.371 15.0255C101.933 14.2033 102.695 13.5369 103.584 13.0884C104.474 12.6398 105.462 12.4239 106.458 12.4605C107.154 12.4579 107.847 12.5535 108.516 12.7445C109.262 12.9751 109.973 13.309 110.627 13.7365L109.421 16.5845C109.009 16.3128 108.578 16.0695 108.133 15.8565C107.669 15.6367 107.161 15.5256 106.647 15.5316Z" fill="#6A6A6A"/>
<path d="M113.359 11.2265V10.8785C113.832 10.2625 114.257 9.61202 114.632 8.9325C115.115 8.0905 115.459 7.44618 115.664 6.99951H119.927V7.2695C119.466 7.92354 118.931 8.52246 118.332 9.0545C117.547 9.81937 116.724 10.5443 115.865 11.2265H113.359ZM113.506 31.5765V12.7345H116.938V31.5775L113.506 31.5765Z" fill="#6A6A6A"/>
<path d="M134.813 31.5774H130.363L124.304 17.9284H124.13C124.359 19.0304 124.472 20.1537 124.465 21.2794V31.5794H121.086V12.7344H125.564L131.57 26.2414H131.717C131.534 25.1771 131.448 24.0982 131.462 23.0184V12.7344H134.814L134.813 31.5774Z" fill="#6A6A6A"/>
<path d="M138.926 31.5774V12.7344H142.358V31.5774H138.926Z" fill="#6A6A6A"/>
<path d="M159.988 22.1263C159.988 25.245 159.381 27.6423 158.165 29.3183C157.539 30.1017 156.745 30.7343 155.841 31.1692C154.938 31.6041 153.948 31.8302 152.945 31.8308C151.942 31.8313 150.952 31.6064 150.048 31.1725C149.143 30.7386 148.348 30.107 147.721 29.3243C146.506 27.6536 145.898 25.2456 145.898 22.1003C145.898 18.981 146.506 16.5903 147.721 14.9283C148.321 14.1087 149.116 13.4515 150.033 13.0161C150.951 12.5806 151.962 12.3807 152.976 12.4343C153.984 12.3834 154.988 12.5862 155.896 13.024C156.805 13.4619 157.589 14.1207 158.176 14.9403C159.384 16.6143 159.988 19.0096 159.988 22.1263ZM149.625 22.1263C149.538 23.8055 149.826 25.483 150.47 27.0363C150.667 27.534 151.008 27.9611 151.451 28.2623C151.893 28.5635 152.415 28.7248 152.95 28.7253C155.15 28.7253 156.25 26.5253 156.25 22.1253C156.25 17.7253 155.16 15.5253 152.979 15.5253C152.441 15.5222 151.915 15.6808 151.468 15.9805C151.021 16.2802 150.674 16.7072 150.472 17.2063C149.826 18.7625 149.537 20.4436 149.625 22.1263Z" fill="#6A6A6A"/>
<path d="M171.777 26.3825C171.827 27.1157 171.73 27.8515 171.492 28.5466C171.253 29.2417 170.879 29.8823 170.389 30.4305C169.852 30.9226 169.221 31.3003 168.533 31.541C167.845 31.7816 167.116 31.8801 166.389 31.8305C164.879 31.8758 163.381 31.5435 162.031 30.8636V27.3965C163.221 28.225 164.619 28.7028 166.067 28.7755C166.348 28.8087 166.632 28.7784 166.9 28.687C167.167 28.5956 167.41 28.4454 167.612 28.2474C167.813 28.0494 167.968 27.8088 168.064 27.5431C168.16 27.2775 168.195 26.9937 168.167 26.7126C168.167 26.0829 167.944 25.4736 167.537 24.9926C166.933 24.3159 166.233 23.7317 165.459 23.2585C164.752 22.8151 164.11 22.2767 163.549 21.6585C163.116 21.1482 162.776 20.5657 162.544 19.9376C162.295 19.226 162.175 18.4755 162.189 17.7216C162.152 17.0201 162.257 16.3184 162.498 15.6584C162.738 14.9985 163.11 14.3938 163.589 13.8806C164.085 13.3993 164.675 13.0251 165.322 12.7812C165.969 12.5373 166.659 12.4288 167.349 12.4626C168.876 12.4699 170.372 12.8886 171.68 13.6746L170.477 16.4846C170.042 16.2413 169.592 16.0259 169.13 15.8395C168.65 15.6487 168.138 15.5526 167.621 15.5566C167.367 15.5412 167.112 15.5835 166.877 15.6805C166.641 15.7775 166.43 15.9266 166.26 16.1165C165.923 16.5518 165.755 17.094 165.785 17.6436C165.774 18.2477 165.976 18.8365 166.355 19.3066C166.932 19.9428 167.603 20.4862 168.345 20.9175C169.418 21.5443 170.334 22.4088 171.02 23.4446C171.534 24.3373 171.796 25.3527 171.777 26.3825Z" fill="#6A6A6A"/>
<path d="M188.173 18.5334C188.23 19.3676 188.119 20.2047 187.849 20.9958C187.578 21.787 187.153 22.5163 186.597 23.1414C185.988 23.7037 185.269 24.1357 184.487 24.4109C183.704 24.686 182.874 24.7984 182.046 24.7414H181.135V31.5724H177.488V12.7344H182.462C186.27 12.7344 188.173 14.6674 188.173 18.5334ZM181.135 21.7044H181.835C182.2 21.7335 182.566 21.6853 182.911 21.5632C183.256 21.441 183.57 21.2475 183.835 20.9954C184.255 20.319 184.483 19.5406 184.492 18.7444C184.502 17.9482 184.293 17.1646 183.889 16.4784C183.652 16.2267 183.362 16.0317 183.039 15.9077C182.717 15.7838 182.371 15.7341 182.026 15.7624H181.141L181.135 21.7044Z" fill="#6A6A6A"/>
<path d="M199.477 31.5774H190.641V12.7344H199.477V15.7624H194.289V20.2474H199.099V23.2884H194.286V28.5084H199.474L199.477 31.5774Z" fill="#6A6A6A"/>
<path d="M205.976 24.2435V31.5775H202.328V12.7345H207.101C208.714 12.6003 210.316 13.0943 211.573 14.1135C212.089 14.6796 212.484 15.3458 212.732 16.0708C212.979 16.7957 213.076 17.5639 213.014 18.3275C213.014 20.7075 212.178 22.3699 210.507 23.3145L214.274 31.5765H210.374L207.274 24.2425L205.976 24.2435ZM205.976 21.2275H206.914C207.255 21.2605 207.6 21.2146 207.92 21.0932C208.241 20.9718 208.529 20.7783 208.763 20.5275C209.182 19.9127 209.381 19.1745 209.327 18.4325C209.398 17.696 209.183 16.9605 208.727 16.3775C208.477 16.1561 208.185 15.9877 207.868 15.8823C207.551 15.777 207.216 15.7369 206.883 15.7645H205.972L205.976 21.2275Z" fill="#6A6A6A"/>
<path d="M228.11 12.7344V24.9264C228.238 26.7756 227.674 28.6064 226.528 30.0634C225.941 30.674 225.228 31.149 224.439 31.4551C223.649 31.7612 222.802 31.891 221.957 31.8354C221.131 31.891 220.303 31.7621 219.533 31.4578C218.763 31.1535 218.071 30.6816 217.506 30.0764C216.386 28.5844 215.843 26.7374 215.977 24.8764V12.7364H219.597V25.1364C219.597 27.5364 220.424 28.7364 222.077 28.7364C222.428 28.7505 222.777 28.6736 223.089 28.5133C223.401 28.353 223.667 28.1146 223.86 27.8214C224.326 27.0372 224.545 26.1316 224.491 25.2214V12.7344H228.11Z" fill="#6A6A6A"/>
<path d="M240.764 31.5777L239.638 26.8217H234.531L233.404 31.5777H229.758L234.611 12.6577H239.558L244.425 31.5777H240.764ZM238.955 23.7167L237.909 19.3337C237.847 19.067 237.706 18.4004 237.487 17.3337C237.267 16.267 237.134 15.5517 237.087 15.1877C236.971 15.927 236.823 16.741 236.644 17.6297C236.464 18.5184 236 20.5484 235.25 23.7197L238.955 23.7167Z" fill="#6A6A6A"/>
<path d="M259.884 31.5774H255.433L249.373 17.9284H249.199C249.429 19.0304 249.541 20.1537 249.534 21.2794V31.5794H246.156V12.7344H250.634L256.64 26.2414H256.787C256.604 25.1771 256.519 24.0982 256.532 23.0184V12.7344H259.884V31.5774Z" fill="#6A6A6A"/>
<path d="M276.828 22.1263C276.828 25.245 276.221 27.6423 275.005 29.3183C274.379 30.1017 273.585 30.7343 272.681 31.1692C271.778 31.6041 270.788 31.8302 269.785 31.8308C268.782 31.8314 267.792 31.6064 266.888 31.1725C265.983 30.7387 265.188 30.107 264.561 29.3243C263.345 27.6536 262.738 25.2457 262.738 22.1003C262.738 18.981 263.346 16.5903 264.561 14.9283C265.161 14.1087 265.956 13.4514 266.873 13.016C267.791 12.5805 268.802 12.3806 269.816 12.4343C270.824 12.3835 271.827 12.5863 272.736 13.0242C273.644 13.462 274.428 14.1208 275.016 14.9403C276.224 16.6143 276.828 19.0097 276.828 22.1263ZM266.465 22.1263C266.377 23.8055 266.666 25.4832 267.31 27.0363C267.507 27.534 267.848 27.9611 268.29 28.2623C268.733 28.5635 269.255 28.7248 269.79 28.7253C271.99 28.7253 273.09 26.5253 273.09 22.1253C273.09 17.7253 272 15.5253 269.819 15.5253C269.281 15.5221 268.754 15.6806 268.307 15.9804C267.86 16.2801 267.514 16.7072 267.312 17.2063C266.666 18.7624 266.376 20.4436 266.465 22.1263V22.1263Z" fill="#6A6A6A"/>
</svg>
