<?xml version="1.0" encoding="UTF-8"?> <!-- Creator: CorelDRAW --> <svg xmlns="http://www.w3.org/2000/svg" xmlns:xlink="http://www.w3.org/1999/xlink" xmlns:xodm="http://www.corel.com/coreldraw/odm/2003" xml:space="preserve" width="559.436mm" height="382.812mm" shape-rendering="geometricPrecision" text-rendering="geometricPrecision" image-rendering="optimizeQuality" fill-rule="evenodd" clip-rule="evenodd" viewBox="0 0 14696.46 10056.53"> <g id="Camada_x0020_1"> <metadata id="CorelCorpID_0Corel-Layer"></metadata> <path fill="#E6E6E6" fill-rule="nonzero" d="M-0 8955.01c0,608.35 3289.91,1101.52 7348.23,1101.52 4058.32,0 7348.23,-493.17 7348.23,-1101.52 0,-608.35 -3289.91,-1101.53 -7348.23,-1101.53 -4058.32,0 -7348.23,493.18 -7348.23,1101.53z"></path> <path fill="#22A59A" fill-rule="nonzero" d="M11289.03 3919.37c0,0 1836.72,-2899.24 2604.69,-2371.29 767.98,527.94 -1661.22,1670.04 -2169.16,2530.97l-435.53 -159.68z"></path> <path fill="#22A59A" fill-rule="nonzero" d="M11317.22 4362.52c0,0 2060.21,-2163.11 2760.16,-1540.78 699.98,622.33 -1775,1121.02 -2350.23,1771.11l-409.93 -230.33z"></path> <path fill="white" fill-rule="nonzero" d="M11545.39 4493.38c389.1,-456.18 965.42,-814.21 1380.38,-1034.23 449.86,-238.51 812.03,-370.62 815.63,-371.94l-8.16 -22.51c-3.61,1.32 -367.37,133.99 -818.7,373.28 -416.8,220.99 -995.81,580.79 -1387.36,1039.84l18.22 15.55z"></path> <path fill="#22A59A" fill-rule="nonzero" d="M4487.82 5467.58c0,0 -2737.45,-298.88 -2860.51,555.71 -123.07,854.6 1916.94,-265.66 2708.69,-149.71l151.82 -406z"></path> <path fill="white" fill-rule="nonzero" d="M4407.85 5677.51c-302.57,-49.95 -824.73,-74.47 -1594.13,92.33 -459.96,99.72 -794.83,222.43 -798.15,223.66l4.94 13.37c3.32,-1.22 337.42,-123.65 796.45,-223.13 767.08,-166.29 1287.28,-141.91 1588.57,-92.17l2.32 -14.07z"></path> <path fill="#22A59A" fill-rule="nonzero" d="M4322.42 5304.76c0,0 -2938.64,-2162.99 -3648,-1265.4 -709.36,897.61 2373.67,970.33 3204,1629.75l444 -364.35z"></path> <path fill="white" fill-rule="nonzero" d="M4091.15 5492.18c-313.56,-258.44 -895.72,-633.81 -1888.44,-954.31 -593.47,-191.59 -1058.87,-273.65 -1063.5,-274.45l-3.24 18.61c4.62,0.81 468.95,82.69 1061.22,273.91 989.72,319.56 1569.7,693.44 1881.94,950.82l12.03 -14.58z"></path> <path fill="#333333" fill-rule="nonzero" d="M10557.64 2080.25l14.11 -0.78c-0.11,-2.16 -10.97,-221.2 72.56,-538.91 77.09,-293.14 252.58,-732.65 650.98,-1161.77l-10.35 -9.61c-400.6,431.48 -577,873.54 -654.45,1168.4 -83.97,319.69 -72.96,540.46 -72.84,542.66z"></path> <path fill="#333333" fill-rule="nonzero" d="M10591.52 1762.79c291.17,-23.83 530.74,-157.85 712.1,-398.35 6.28,-8.33 12.21,-16.2 13.95,-17.59 -0.02,0.02 -0.53,0.42 -1.47,0.7l-4.04 -13.53c-4,1.19 -6.59,4.51 -19.7,21.92 -178.84,237.15 -415,369.28 -701.97,392.76l1.14 14.1z"></path> <path fill="#FA6555" fill-rule="nonzero" d="M7413.97 2960.52c0,0 1429.91,-2118.67 3386.03,-1586.12 2399.91,653.36 1734.99,3327.29 1259.26,4082.38 -475.72,755.11 -4281.5,3129.63 -4645.3,3172.72 -363.79,43.09 0,-5668.98 0,-5668.98z"></path> <path fill="#FA6555" fill-rule="nonzero" d="M7420.55 2960.52c0,0 -1455.15,-2192.39 -3386.02,-1586.12 -1930.89,606.26 -1969.34,2848.36 -1259.27,4082.38 826.21,1435.86 4281.51,3129.63 4645.3,3172.72 363.79,43.09 0,-5668.98 0,-5668.98z"></path> <path fill="#666666" fill-rule="nonzero" d="M6438.9 1345.6c125.46,54.61 180.33,31.67 201.98,-16.68 21.65,-48.36 1.89,-103.81 -123.56,-158.43 -228.54,-99.5 -378.21,-60.04 -378.21,-60.04 0,0 67.92,134.19 299.79,235.15z"></path> <path fill="#666666" fill-rule="nonzero" d="M6917.26 2393.86c99.68,10.16 132.55,-18.01 136.51,-56.45 3.96,-38.45 -22.48,-72.63 -122.17,-82.79 -181.61,-18.49 -276.54,42.2 -276.54,42.2 0,0 77.95,78.28 262.2,97.04z"></path> <path fill="#333333" fill-rule="nonzero" d="M6869.66 4467.92l25.43 -5.1c-0.81,-3.85 -79.68,-392.62 -13.81,-982.54 60.8,-544.32 260.78,-1376.13 868.38,-2247.79l-21.4 -14.47c-610.94,876.47 -811.89,1713.07 -872.89,2260.56 -66.14,593.6 13.48,985.45 14.29,989.34z"></path> <path fill="#333333" fill-rule="nonzero" d="M7156.07 2296.57l20.08 -16.13c-596.62,-718.96 -404.04,-1695.27 -402.02,-1705.05l-25.44 -5.13c-2.03,9.9 -197.17,997.8 407.38,1726.31z"></path> <path fill="#66192D" fill-rule="nonzero" d="M7495.39 1841.2c261.76,-29.5 444.3,-180.82 446.39,-182.58l-16.9 -19.42c-2.31,1.96 -236.28,195.48 -551.62,180.6l-1.2 25.51c42.66,2.01 83.91,0.33 123.33,-4.11z"></path> <path fill="#333333" fill-rule="nonzero" d="M6845.43 3891.44c522.33,-118.94 921.21,-421.38 1185.57,-898.91 9.17,-16.52 17.82,-32.16 20.59,-35.09 -0.04,0.04 -0.85,0.88 -2.48,1.63l-10.98 -23.14c-6.94,3.17 -10.77,9.78 -29.9,44.35 -260.7,470.86 -653.88,769.05 -1168.69,886.26l5.88 24.89z"></path> <path fill="#333333" fill-rule="nonzero" d="M7561.54 3533.88l24.11 -9.43c-130.8,-322.05 36.43,-836.16 38.13,-841.31l-24.66 -7.96c-0.43,1.31 -43.62,132.92 -69.7,303.22 -24.17,157.78 -38.23,382.24 32.13,555.47z"></path> <path fill="#666666" fill-rule="nonzero" d="M7750.11 1089.1c-122.02,136.44 -125.57,205.4 -85.2,240.38 40.36,34.98 109.38,22.74 231.37,-113.7 222.26,-248.55 256.59,-432.03 256.59,-432.03 0,0 -177.27,53.17 -402.76,305.35z"></path> <path fill="#666666" fill-rule="nonzero" d="M7862.94 1584.39c-158.2,93.82 -182.73,158.44 -154.93,203.76 27.8,45.31 97.39,54.14 255.59,-39.67 288.19,-170.88 377.14,-335.51 377.14,-335.51 0,0 -185.42,-1.94 -477.8,171.43z"></path> <path fill="#666666" fill-rule="nonzero" d="M7542.25 2608.71c-47.63,126.41 -20.95,178.99 29.43,197.46 50.39,18.49 105.4,-4.14 153.02,-130.55 86.77,-230.29 37.47,-375.03 37.47,-375.03 0,0 -131.89,74.48 -219.92,308.12z"></path> <path fill="#666666" fill-rule="nonzero" d="M7183.95 1466.78c-15.6,134.02 23.04,178.84 76.42,184.97 53.38,6.12 101.29,-28.77 116.9,-162.78 28.4,-244.12 -54.52,-373.19 -54.52,-373.19 0,0 -109.97,103.34 -138.8,351.01z"></path> <path fill="#666666" fill-rule="nonzero" d="M7204.75 3437.92c23.32,133 73.17,165.36 126.11,156.47 52.96,-8.89 88.94,-55.65 65.63,-188.65 -42.47,-242.28 -158.86,-343.29 -158.86,-343.29 0,0 -75.97,129.66 -32.88,375.47z"></path> <path fill="#666666" fill-rule="nonzero" d="M7918.83 2980.61c-74.05,113.4 -59.42,170.35 -14.2,199.01 45.22,28.65 103.9,18.16 177.94,-95.23 134.9,-206.54 118.22,-358.26 118.22,-358.26 0,0 -145.1,44.93 -281.95,254.49z"></path> <path fill="#666666" fill-rule="nonzero" d="M6676.6 477.19c-21.07,180.72 15.93,239.44 69.31,245.58 53.38,6.13 102.93,-42.64 123.99,-223.36 38.39,-329.2 -39.71,-499.42 -39.71,-499.42 0,0 -114.65,143.2 -153.59,477.19z"></path> <path fill="#333333" fill-rule="nonzero" d="M6473.46 4410.14c0,51.94 192.29,94.07 429.5,94.07 237.22,0 429.51,-42.12 429.51,-94.07 0,-51.94 -192.29,-94.07 -429.51,-94.07 -237.21,0 -429.5,42.12 -429.5,94.07z"></path> <path fill="#333333" fill-rule="nonzero" d="M2721.44 9029.05c11.24,0 20.96,-8.4 22.35,-19.83l507.94 -4173.47c1.49,-12.36 -7.3,-23.61 -19.67,-25.11 -12.39,-1.51 -23.6,7.3 -25.11,19.66l-507.93 4173.47c-1.49,12.36 7.3,23.6 19.67,25.11 0.92,0.1 1.84,0.17 2.75,0.17z"></path> <path fill="#333333" fill-rule="nonzero" d="M1053.53 8505.88c10.53,0 19.94,-7.41 22.08,-18.13l730.2 -3650.34c2.44,-12.21 -5.47,-24.09 -17.69,-26.52 -12.22,-2.46 -24.09,5.48 -26.53,17.69l-730.2 3650.33c-2.44,12.22 5.48,24.1 17.69,26.53 1.49,0.31 2.99,0.45 4.45,0.45z"></path> <polygon fill="#333333" fill-rule="nonzero" points="3163.1,5403.4 3163.1,5351.26 1687.11,5351.22 1687.11,5403.36 "></polygon> <polygon fill="#333333" fill-rule="nonzero" points="2987.52,6846.04 2987.52,6793.89 1386.24,6793.85 1386.24,6846 "></polygon> <polygon fill="#333333" fill-rule="nonzero" points="2845.93,7955.68 2849.39,7903.66 1173.5,7791.96 1170.04,7843.99 "></polygon> <polygon fill="#333333" fill-rule="nonzero" points="10231.6,7866.08 7682.15,7803.68 6106.02,7866.08 7682.15,7996.82 "></polygon> <path fill="#333333" fill-rule="nonzero" d="M10065.56 8935.29c0.9,0 1.83,-0.06 2.75,-0.17 12.35,-1.51 21.16,-12.75 19.66,-25.11l-423.27 -3477.93c-1.5,-12.37 -12.75,-21.15 -25.11,-19.67 -12.36,1.51 -21.17,12.75 -19.67,25.12l423.28 3477.93c1.39,11.45 11.12,19.83 22.36,19.83z"></path> <path fill="#333333" fill-rule="nonzero" d="M11818.11 9107.65c1.47,0 2.96,-0.14 4.45,-0.45 12.21,-2.45 20.14,-14.32 17.69,-26.53l-730.2 -3650.33c-2.45,-12.22 -14.32,-20.12 -26.54,-17.69 -12.21,2.44 -20.13,14.32 -17.68,26.53l730.2 3650.34c2.14,10.72 11.56,18.13 22.08,18.13z"></path> <polygon fill="#333333" fill-rule="nonzero" points="9708.54,6005.17 11184.52,6005.13 11184.52,5952.98 9708.54,5953.02 "></polygon> <polygon fill="#333333" fill-rule="nonzero" points="9884.11,7447.8 11485.39,7447.76 11485.39,7395.61 9884.11,7395.65 "></polygon> <polygon fill="#333333" fill-rule="nonzero" points="10025.71,8557.45 11701.6,8445.76 11698.13,8393.72 10022.24,8505.43 "></polygon> <path fill="#333333" fill-rule="nonzero" d="M2779.04 5128.96c0,0 2.15,85.98 60.32,110.24 58.18,24.26 226.75,46.14 163.75,101.42 -36.14,31.71 -206.47,11.21 -254.56,11.21 -48.1,0 -93.24,20.96 -128.98,-11.22 -39.31,-35.42 0.01,-211.65 0.01,-211.65 0,0 41.5,21.61 78.82,20.64 53.78,-1.38 80.64,-20.64 80.64,-20.64z"></path> <path fill="#333333" fill-rule="nonzero" d="M2110.9 5128.95c0,0 2.16,85.98 60.33,110.24 58.17,24.25 226.75,46.14 163.75,101.42 -36.14,31.7 -206.48,11.21 -254.56,11.21 -48.1,0 -93.26,20.96 -128.99,-11.23 -39.31,-35.41 0,-211.65 0,-211.65 0,0 41.52,21.62 78.83,20.65 53.79,-1.39 80.64,-20.64 80.64,-20.64z"></path> <path fill="#666666" fill-rule="nonzero" d="M3211.45 2771.94c0,0 10.75,359.9 -104.11,1050.32 -82.93,498.43 -180.83,1000.68 -228.87,1241.47 -17.17,86.13 -89.62,149.1 -175.47,152.55l-46.14 1.84c-92.83,3.73 -168.17,-76.02 -161.38,-170.81l116.54 -1629.04 28.73 -536.16 570.7 -110.16z"></path> <path fill="#66192D" fill-rule="nonzero" d="M2160.67 3088.67c5.3,43.81 252.98,38.49 556.24,0.1 303.26,-38.39 539.31,-104.08 534.01,-147.88 -5.29,-43.82 -249.93,-49.13 -553.19,-10.75 -303.26,38.39 -542.35,114.72 -537.06,158.53z"></path> <path fill="#666666" fill-rule="nonzero" d="M2863.28 3029.01l-647.45 2079.79c-27.1,87.06 -105.47,146.71 -194.76,148.23l-38.92 0.67c-91.88,1.57 -162.11,-83.38 -145.36,-175.83l354.18 -1954.24c5.14,-23.23 22.28,-41.7 44.69,-48.15 121.43,-35.03 639.54,-136.48 627.62,-50.46z"></path> <path fill="#FDAD9B" fill-rule="nonzero" d="M2119.39 2941.77l146.8 -170.51c-2.62,-1.62 -290.77,-183.55 -263.18,-442.59 14.39,-135.04 95.34,-243.66 240.59,-322.88 115.61,-63.03 229.06,-82.81 230.18,-82.98l-34.52 -221.22c-6.02,0.99 -149.19,25.03 -298.63,106.52 -210.04,114.53 -332.89,286.14 -355.28,496.3 -18.08,169.72 41.27,338.5 171.63,488.07 93.53,107.3 89.36,113.75 162.42,149.3z"></path> <path fill="#FDAD9B" fill-rule="nonzero" d="M3266.21 2218.87c118.12,0 243.26,-44.91 372.46,-133.73 97.55,-67.06 162.57,-136.36 165.28,-139.27l-158.42 -154.63 79.21 77.3 -79.05 -77.48c-55.89,59.45 -235.3,211.84 -392.65,203.43 -71.45,-3.84 -133.08,-41.1 -188.46,-113.94l-172.82 137.54c94.23,123.97 215.52,193.19 350.75,200.16 7.86,0.42 15.78,0.62 23.71,0.62z"></path> <path fill="#FF443C" fill-rule="nonzero" d="M2261.92 1891.24c0,0 86.14,-242.36 393.02,-231.33 306.87,11.02 538.58,414.27 595.99,1280.97 0,0 -502.5,-110.19 -1091.15,146.86 0,0 -32.63,-843.25 102.15,-1196.5z"></path> <path fill="#FF443C" fill-rule="nonzero" d="M2020.93 1840l242.88 175.8c0,0 558.81,55.91 707.17,29 148.34,-26.92 189.06,-146.9 189.06,-146.9 0,0 -158,-180.07 -426.56,-228.15 -25.22,-4.55 -51.39,-7.89 -78.53,-9.84 -45.54,-3.23 -91.09,-1.84 -135.74,2.98 -265.32,28.63 -498.28,177.1 -498.28,177.1z"></path> <path fill="#66192D" fill-rule="nonzero" d="M2020.95 1840c-13.18,19.04 30.53,73.83 97.59,122.38 67.07,48.55 132.11,72.47 145.27,53.44 13.18,-19.04 -30.52,-73.83 -97.59,-122.39 -67.07,-48.55 -132.1,-72.47 -145.27,-53.43z"></path> <path fill="#FDAD9B" fill-rule="nonzero" d="M3513.75 2025.48c0,0 65.97,-188.09 131.78,-234.25 65.81,-46.18 104.69,11.09 104.69,11.09l68.07 -15.39c0,0 66.76,290.93 -143.8,277.46 -16.63,-1.06 -160.74,-38.91 -160.74,-38.91z"></path> <path fill="#E08B65" fill-rule="nonzero" d="M1825.93 2331.22c0,24.99 13.59,46.08 29.66,46.08l0.01 0c7.53,0 14.75,-4.51 20.33,-12.73 6.01,-8.83 9.33,-20.68 9.33,-33.36 0,-24.98 -13.58,-46.09 -29.66,-46.09 -16.09,0 -29.67,21.1 -29.67,46.09zm29.66 56.73c-22.23,0 -40.32,-25.44 -40.32,-56.73 0,-31.3 18.09,-56.74 40.33,-56.74 22.23,0 40.32,25.46 40.32,56.74 0,14.79 -3.97,28.78 -11.18,39.35 -7.64,11.21 -17.99,17.38 -29.15,17.38l-0.01 0z"></path> <path fill="#FDAD9B" fill-rule="nonzero" d="M2519.73 1662.83c32.82,-3.51 61.33,-24.12 74.39,-54.42l40.91 -94.99 11.86 -27.58 69.81 -162.12 -12.1 168.01 -7.3 100.84 -2.06 28.74c-1.7,23.47 14.7,44.22 37.84,48.38l0.41 0.07c12.43,20.21 29.57,61.27 -21.68,77.57 -60.23,19.17 -157.64,-28.25 -192.61,-84.43 0.19,-0.03 0.35,-0.04 0.53,-0.06z"></path> <path fill="#FDAD9B" fill-rule="nonzero" d="M2147.82 2696.02c0,0 90.93,-83.23 162.72,-75.88 71.79,7.35 157.93,71.01 112.46,75.9 -45.46,4.88 -105.28,-4.89 -105.28,-4.89 0,0 126.82,26.91 107.68,53.85 -19.15,26.93 -129.23,2.45 -129.23,2.45 0,0 148.36,44.08 122.04,63.65 -26.33,19.59 -138.79,-14.69 -138.79,-14.69 0,0 136.4,46.52 105.29,68.57 -31.11,22.02 -112.47,-39.18 -131.62,-12.25 -19.14,26.92 -55.03,132.2 -136.38,88.13l31.1 -244.83z"></path> <path fill="#020202" fill-rule="nonzero" d="M2573.92 3958.59l139.23 -423.27c31.31,-95.18 95.72,-174.63 181.34,-223.67l-5.41 -9.45c-87.97,50.4 -154.11,131.98 -186.28,229.71l-139.24 423.29 10.35 3.4z"></path> <path fill="#FDAD9B" fill-rule="nonzero" d="M2219.03 2019.07c0,0 13.46,-40.39 -47.56,-85.38 -61.02,-44.98 -140.14,-55.09 -140.14,-55.09l-16 77.12 86.15 37.65 117.55 25.71z"></path> <path fill="#333333" fill-rule="nonzero" d="M2526.81 1296.07c0,0 6.51,27.57 -9.34,84.09 -23.2,82.67 71.29,117.2 95.47,93.59 2.99,-2.91 -0.96,-143.53 -0.96,-143.53l-30.2 -17.95 -54.96 -16.19z"></path> <path fill="#333333" fill-rule="nonzero" d="M2634.85 1510.63c0.03,0.93 0.08,1.86 0.18,2.78 4,54.16 61.93,79.46 61.93,79.46l0.35 -0.3 7.27 -100.84c-17.71,-6.49 -42.94,-13.16 -57.7,-5.9 -7.71,3.8 -12.57,11.39 -12.04,24.79z"></path> <path fill="#FDAD9B" fill-rule="nonzero" d="M2882.17 1350.6c0,-107.55 -70.66,-194.74 -157.84,-194.75 -87.17,0 -157.86,87.19 -157.86,194.75 0,107.55 70.67,194.74 157.84,194.74 87.19,0.01 157.85,-87.19 157.86,-194.74z"></path> <path fill="#333333" fill-rule="nonzero" d="M2786.85 1201.12c-4.38,5.99 20.45,106.17 -165.15,130.08 -185.6,23.92 -74.09,-201.25 62.84,-206.34 197.74,-7.34 226.52,125.61 207.53,173.45 -19,47.85 -105.22,-97.19 -105.22,-97.19z"></path> <path fill="#333333" fill-rule="nonzero" d="M2500.79 1077.96c0,0 83.37,55.77 19.25,108.26 -64.14,52.5 -240.5,75.46 -192.4,164.03 48.1,88.58 89.77,219.82 3.2,236.22 -86.59,16.4 -141.1,9.83 -176.37,78.73 -35.26,68.91 -192.38,26.25 -179.56,-55.77 12.83,-82.02 -121.85,-154.19 -64.12,-229.66 57.71,-75.46 198.8,-141.07 234.08,-239.49 35.27,-98.42 288.58,-104.98 355.92,-62.33z"></path> <path fill="#333333" fill-rule="nonzero" d="M2642.16 1299.31c0,0 -75.84,79.96 -49.54,161.7 0,0 -43.99,-48.07 -44.97,-66.01 -0.96,-17.94 10.72,-82.74 10.72,-82.74l83.79 -12.95z"></path> <path fill="#FDAD9B" fill-rule="nonzero" d="M2587.59 1379.97c17.88,17.08 42.88,18.82 55.83,3.91 12.97,-14.92 8.98,-40.85 -8.9,-57.92 -17.89,-17.07 -42.88,-18.82 -55.85,-3.9 -12.96,14.9 -8.98,40.84 8.91,57.92z"></path> <path fill="white" fill-rule="nonzero" d="M2013.38 1691.94c0.45,0 0.91,-0.08 1.36,-0.25 22.37,-8.66 35.65,-19.54 40.61,-33.32 7.55,-20.99 -5.35,-43.98 -19.02,-68.33 -11.97,-21.32 -24.34,-43.36 -21.37,-63.15 3.51,-23.35 34.19,-28.81 66.67,-34.6 27.38,-4.86 55.67,-9.89 66.9,-27.38 5.34,-8.32 6.4,-18.88 3.16,-31.38 -3.57,-13.81 -7.96,-26.19 -12.21,-38.15 -18.24,-51.41 -32.65,-92.01 47.95,-184.99 103.35,-119.26 188.97,-125 266.1,-113.46 9.02,1.35 31.86,13.12 31.74,23.6 -0.07,5.39 -7.45,18.87 -74.33,27.27 -1.29,0.27 -95.06,22.13 -140.2,123.29 -24.05,53.9 10.12,111.58 37.58,157.92 18.43,31.1 34.34,57.95 29.36,75.97 -1.8,6.54 -6.38,11.73 -14,15.86 -18.71,10.2 -39.7,15.87 -59.99,21.34 -52.21,14.12 -106.2,28.72 -112.99,122.78 -0.14,2.06 1.42,3.86 3.48,4 1.88,0.18 3.86,-1.39 4.02,-3.47 6.4,-88.72 55.48,-102 107.44,-116.05 20.71,-5.61 42.13,-11.4 61.63,-21.98 9.37,-5.11 15.32,-12 17.65,-20.48 5.82,-21.1 -10.84,-49.23 -30.14,-81.8 -27.96,-47.19 -59.66,-100.67 -37.18,-151.02 43.55,-97.6 133.7,-118.76 134.61,-118.97 53.9,-6.75 80.36,-18.08 80.55,-34.58 0.2,-16.64 -28.25,-29.63 -38.13,-31.11 -79.23,-11.87 -167.16,-6.03 -272.9,115.97 -83.47,96.3 -68.42,138.71 -49.35,192.43 4.18,11.8 8.53,24.02 12.01,37.52 2.73,10.54 2.01,18.87 -2.2,25.43 -9.46,14.73 -36.12,19.47 -61.9,24.06 -33.66,5.99 -68.48,12.18 -72.79,40.86 -3.35,22.33 9.66,45.52 22.25,67.96 12.8,22.8 24.88,44.35 18.5,62.1 -4.18,11.59 -16.03,21.03 -36.25,28.85 -1.95,0.75 -2.9,2.93 -2.15,4.87 0.58,1.48 2,2.4 3.5,2.4z"></path> <path fill="white" fill-rule="nonzero" d="M2620.25 1272.16l0.08 0c71.36,-1.52 106.85,-57.7 108.33,-60.09 1.1,-1.77 0.55,-4.09 -1.21,-5.17 -1.77,-1.09 -4.08,-0.54 -5.17,1.21 -0.34,0.56 -34.93,55.1 -102.11,56.53 -2.08,0.04 -3.73,1.76 -3.67,3.84 0.04,2.05 1.72,3.68 3.75,3.68z"></path> <path fill="#F18C7E" fill-rule="nonzero" d="M2316.78 2693.63l1.86 -4.99c-1.47,-0.56 -36.46,-13.42 -55.81,0.32l3.08 4.35c17.04,-12.09 50.54,0.19 50.87,0.32z"></path> <path fill="#F18C7E" fill-rule="nonzero" d="M2295.19 2749.91l1.97 -4.96c-1.43,-0.56 -35.09,-13.59 -65.75,0.05l2.15 4.87c28.65,-12.73 61.3,-0.08 61.64,0.04z"></path> <path fill="#F18C7E" fill-rule="nonzero" d="M2278.49 2798.9l1.86 -4.99c-1.75,-0.66 -43.08,-15.93 -62.46,0.45l3.43 4.07c17.01,-14.35 56.77,0.32 57.17,0.46z"></path> <path fill="#F9AEA6" fill-rule="nonzero" d="M3205.99 2980.11c0,0 -140.95,-19.6 -352.6,-3.96 -327.81,24.22 -606.23,100.12 -606.23,100.12l104.06 17.48 651.58 25.82 131.16 -107.58 72.03 -31.88z"></path> <path fill="#DB6B49" fill-rule="nonzero" d="M2811.48 1476.62c0,0 -53.93,1.23 -107.84,-17.7 0,0 -4.48,53.14 53.91,56.7 33.96,2.08 53.93,-39 53.93,-39z"></path> <path fill="white" fill-rule="nonzero" d="M2811.48 1476.62c0,0 -13.06,10.82 -43.49,10.68 -30.44,-0.13 -64.34,-28.38 -64.34,-28.38 0,0 64.97,17.86 107.84,17.7z"></path> <path fill="#060633" fill-rule="nonzero" d="M2739.59 1352.48c1.06,-0.3 1.97,-1.05 2.4,-2.13 0.73,-1.83 -0.16,-3.93 -1.99,-4.67 -1.07,-0.43 -25.24,-12.86 -46.48,10.37 -1.33,1.46 -1.31,3.72 0.13,5.07 1.44,1.36 3.42,0.99 5.08,-0.13 16.48,-11.07 37.7,-8.99 38.6,-8.65 0.76,0.3 1.55,0.33 2.27,0.14z"></path> <path fill="#060633" fill-rule="nonzero" d="M2711.18 1391.93c-0.27,8.56 4.54,15.67 10.75,15.86 6.22,0.2 11.48,-6.59 11.75,-15.14 0.27,-8.56 -4.54,-15.66 -10.76,-15.86 -6.21,-0.2 -11.47,6.59 -11.74,15.14z"></path> <path fill="#060633" fill-rule="nonzero" d="M2867.75 1371.21c1.08,0.13 2.21,-0.22 3.02,-1.07 1.38,-1.43 1.35,-3.69 -0.06,-5.07 -0.84,-0.81 -18.45,-21.52 -46.93,-8.13 -1.8,0.85 -2.63,2.93 -1.82,4.75 0.81,1.81 2.8,2.2 4.75,1.82 19.46,-3.97 38.27,6.04 38.97,6.72 0.58,0.55 1.31,0.88 2.06,0.98z"></path> <path fill="#060633" fill-rule="nonzero" d="M2826.45 1396.86c-3.52,7.81 -1.77,16.22 3.91,18.76 5.66,2.56 13.11,-1.71 16.62,-9.53 3.51,-7.82 1.77,-16.22 -3.91,-18.78 -5.66,-2.54 -13.11,1.73 -16.63,9.54z"></path> <path fill="gray" fill-rule="nonzero" d="M3802.42 2269.61l39.35 -34.98c-51.87,-58.33 -119.04,-212.56 -110.55,-331.11 3.34,-46.71 18.23,-81.49 44.33,-103.55 86.06,-72.74 276.26,24.25 342.24,67.77l28.92 -43.93c-11.04,-7.35 -271.6,-176.89 -405.16,-63.99 -37.31,31.5 -58.48,78.61 -62.85,139.92 -9.79,137.53 66.93,305.97 123.72,369.86z"></path> <path fill="#FDAD9B" fill-rule="nonzero" d="M3848.45 1847.86c7.64,0 15.33,-2.86 21.37,-8.63 12.65,-12.09 13.33,-32.36 1.53,-45.31l-52.64 -57.72c-11.82,-12.95 -31.65,-13.62 -44.3,-1.57 -12.64,12.08 -13.33,32.37 -1.53,45.32l52.65 57.72c6.16,6.76 14.53,10.18 22.92,10.18z"></path> <path fill="#FDAD9B" fill-rule="nonzero" d="M3828.49 1901.09c7.66,0 15.33,-2.86 21.37,-8.63 12.65,-12.08 13.33,-32.37 1.54,-45.31l-52.65 -57.72c-11.82,-12.92 -31.65,-13.62 -44.3,-1.57 -12.64,12.09 -13.33,32.38 -1.53,45.33l52.64 57.72c6.18,6.76 14.54,10.18 22.93,10.18z"></path> <path fill="#FDAD9B" fill-rule="nonzero" d="M3807.38 1950.14c7.66,0 15.34,-2.85 21.37,-8.62 12.65,-12.09 13.35,-32.37 1.54,-45.32l-52.64 -57.72c-11.81,-12.92 -31.64,-13.63 -44.3,-1.57 -12.64,12.08 -13.33,32.37 -1.52,45.32l52.63 57.72c6.17,6.77 14.54,10.18 22.92,10.18z"></path> <path fill="#FDAD9B" fill-rule="nonzero" d="M3774.24 1982.29c4.76,0 9.55,-1.65 13.48,-5.04 8.79,-7.63 9.91,-21.11 2.45,-30.13l-48 -58.07c-7.45,-9.04 -20.63,-10.17 -29.45,-2.53 -8.81,7.62 -9.91,21.1 -2.46,30.11l48 58.08c4.13,5.01 10.03,7.58 15.97,7.58z"></path> <path fill="#4D4D4D" fill-rule="nonzero" d="M4953.47 1822.95l-291.64 943.74c-29.73,96.22 -139.88,146.34 -251.21,114.34l-627.75 -180.49c-103.47,-29.74 -159.5,-137.06 -114.29,-218.86l492.5 -890.85 792.39 232.12z"></path> <path fill="#4D4D4D" fill-rule="nonzero" d="M6221.52 2396.07c-57.68,17.67 -1537.14,70.26 -1537.14,70.26l119.95 -409.28 1194.76 144.76 222.43 194.26z"></path> <path fill="#666666" fill-rule="nonzero" d="M5873.56 2330.45c-15.2,181.42 63.47,343.67 175.71,362.39 112.24,18.73 215.54,-113.16 230.74,-294.56 15.21,-181.4 -63.46,-343.65 -175.7,-362.39 -112.24,-18.71 -215.54,113.16 -230.75,294.56z"></path> <path fill="gray" fill-rule="nonzero" d="M4200.28 1562.72c-30.87,68.29 105.97,196.83 305.65,287.08 199.68,90.26 386.57,108.04 417.45,39.75 30.87,-68.3 -105.98,-196.84 -305.65,-287.09 -199.68,-90.26 -386.58,-108.04 -417.45,-39.74z"></path> <path fill="#4D4D4D" fill-rule="nonzero" d="M4535.84 1554.59c-8.2,18.14 2.17,40.54 23.16,50.02 20.97,9.5 44.63,2.47 52.83,-15.67 8.2,-18.13 -2.16,-40.53 -23.15,-50.03 -20.98,-9.48 -44.64,-2.45 -52.84,15.68z"></path> <path fill="#666666" fill-rule="nonzero" d="M4157.99 1601.67l798.86 282.14c17.73,6.25 36.31,-1.32 41.3,-16.82 4.99,-15.52 -5.44,-33.34 -23.17,-39.59l-798.85 -282.14c-17.72,-6.26 -36.31,1.32 -41.3,16.82 -4.98,15.52 5.43,33.34 23.16,39.59z"></path> <path fill="#1C3442" fill-rule="nonzero" d="M6104.03 2128.74c-0.75,8.88 3.11,16.82 8.59,17.75 5.5,0.91 10.56,-5.54 11.31,-14.43 0.75,-8.88 -3.12,-16.82 -8.6,-17.74 -5.51,-0.92 -10.56,5.54 -11.3,14.42z"></path> <path fill="#1C3442" fill-rule="nonzero" d="M6045.58 2616.43c-0.74,8.89 3.11,16.83 8.6,17.75 5.5,0.92 10.57,-5.54 11.31,-14.42 0.74,-8.88 -3.11,-16.82 -8.61,-17.75 -5.5,-0.91 -10.56,5.55 -11.3,14.42z"></path> <path fill="#1C3442" fill-rule="nonzero" d="M5938.59 2340.11c-0.75,8.88 3.11,16.82 8.59,17.74 5.51,0.91 10.56,-5.54 11.31,-14.42 0.74,-8.88 -3.11,-16.82 -8.61,-17.74 -5.5,-0.93 -10.56,5.53 -11.29,14.42z"></path> <path fill="#1C3442" fill-rule="nonzero" d="M6219.63 2376.61c-0.75,8.87 3.11,16.82 8.59,17.74 5.51,0.92 10.56,-5.54 11.31,-14.42 0.74,-8.89 -3.11,-16.82 -8.61,-17.75 -5.49,-0.91 -10.55,5.54 -11.29,14.43z"></path> <path fill="#1C3442" fill-rule="nonzero" d="M6154.46 2286.07c-0.74,8.89 3.11,16.83 8.61,17.74 5.49,0.93 10.55,-5.53 11.3,-14.41 0.74,-8.89 -3.11,-16.83 -8.61,-17.75 -5.5,-0.92 -10.55,5.54 -11.3,14.42z"></path> <path fill="#1C3442" fill-rule="nonzero" d="M6022.3 2265.85c-0.75,8.88 3.11,16.82 8.6,17.74 5.5,0.93 10.56,-5.54 11.3,-14.42 0.74,-8.88 -3.12,-16.82 -8.6,-17.74 -5.5,-0.92 -10.56,5.54 -11.3,14.42z"></path> <path fill="#1C3442" fill-rule="nonzero" d="M5995.32 2482.35c-0.74,8.88 3.1,16.82 8.6,17.75 5.5,0.92 10.56,-5.54 11.3,-14.43 0.74,-8.88 -3.12,-16.82 -8.6,-17.74 -5.5,-0.92 -10.56,5.54 -11.3,14.42z"></path> <path fill="#1C3442" fill-rule="nonzero" d="M6162.07 2530.99c-0.73,8.88 3.11,16.82 8.6,17.74 5.5,0.92 10.56,-5.54 11.31,-14.41 0.74,-8.89 -3.12,-16.83 -8.6,-17.75 -5.51,-0.92 -10.56,5.54 -11.31,14.42z"></path> <path fill="#1C3442" fill-rule="nonzero" d="M6087.41 2407.37c-0.75,8.88 3.11,16.82 8.59,17.74 5.5,0.92 10.56,-5.53 11.31,-14.41 0.74,-8.89 -3.12,-16.83 -8.6,-17.75 -5.5,-0.92 -10.56,5.54 -11.3,14.42z"></path> <path fill="#1C3442" fill-rule="nonzero" d="M5872.13 2399.92c0.11,0 0.22,-0.01 0.33,-0.02 1.54,-0.19 2.64,-1.58 2.46,-3.11 -0.13,-1.07 -12.09,-107.16 20.82,-169.22 0.72,-1.36 0.2,-3.06 -1.17,-3.78 -1.36,-0.73 -3.07,-0.21 -3.79,1.16 -33.75,63.59 -21.96,168.07 -21.44,172.49 0.17,1.43 1.38,2.48 2.78,2.48z"></path> <path fill="gray" fill-rule="nonzero" d="M4706.47 2471.96c26.13,0 48.02,-5.07 49.63,-5.45 1.51,-0.36 2.43,-1.86 2.08,-3.38 -0.35,-1.51 -1.83,-2.46 -3.38,-2.08 -0.69,0.15 -69.37,16.05 -108.03,-8.64 -13.09,-8.35 -21.35,-20.57 -24.57,-36.29 -15.01,-73.48 209.6,-320.04 211.87,-322.52 1.05,-1.15 0.96,-2.92 -0.18,-3.97 -1.14,-1.05 -2.92,-0.96 -3.97,0.18 -9.35,10.22 -228.82,251.18 -213.25,327.42 3.54,17.28 12.65,30.71 27.07,39.91 18.11,11.57 41.77,14.82 62.71,14.82z"></path> <path fill="#666666" fill-rule="nonzero" d="M4956.86 1886.63c1.38,0 2.59,-1.03 2.78,-2.44 0.19,-1.54 -0.88,-2.96 -2.42,-3.16 -2.9,-0.39 -294.84,-40.87 -658.82,-198.3 -1.41,-0.62 -3.08,0.04 -3.69,1.46 -0.62,1.43 0.04,3.09 1.45,3.7 364.75,157.75 657.4,198.32 660.31,198.72 0.12,0.01 0.25,0.03 0.38,0.03z"></path> <polygon fill="#66192D" fill-rule="nonzero" points="3061.68,2020.84 3068.3,2017.29 2995.93,1882.04 2989.3,1885.59 "></polygon> <path fill="#333333" fill-rule="nonzero" d="M12561.12 9103.18c0,0 -2.26,90.53 -63.52,116.07 -61.26,25.52 -238.75,48.58 -172.43,106.78 38.06,33.4 217.41,11.82 268.03,11.82 50.65,0 98.18,22.06 135.81,-11.82 41.4,-37.28 0,-222.85 0,-222.85 0,0 -43.7,22.76 -82.99,21.74 -56.62,-1.46 -84.9,-21.73 -84.9,-21.73z"></path> <path fill="#333333" fill-rule="nonzero" d="M13264.6 9103.16c0,0 -2.26,90.53 -63.52,116.07 -61.25,25.52 -238.74,48.57 -172.42,106.78 38.05,33.39 217.4,11.82 268.03,11.81 50.64,0 98.18,22.06 135.82,-11.83 41.39,-37.28 -0.01,-222.84 -0.01,-222.84 0,0 -43.7,22.76 -83,21.74 -56.61,-1.47 -84.89,-21.74 -84.89,-21.74z"></path> <path fill="#22A59A" fill-rule="nonzero" d="M12105.84 6621.47c0,0 -11.33,378.94 109.63,1105.87 87.31,524.79 190.39,1053.61 240.97,1307.14 18.09,90.68 94.36,157 184.76,160.63l48.57 1.94c97.74,3.92 177.07,-80.04 169.92,-179.85l-122.7 -1715.21 -30.25 -564.53 -600.89 -115.99z"></path> <path fill="#333333" fill-rule="nonzero" d="M13212.2 6954.95c-5.58,46.13 -266.36,40.53 -585.66,0.1 -319.3,-40.41 -567.85,-109.59 -562.26,-155.7 5.58,-46.13 263.16,-51.73 582.45,-11.31 319.29,40.41 571.04,120.79 565.47,166.91z"></path> <path fill="#22A59A" fill-rule="nonzero" d="M12472.43 6892.14l681.68 2189.8c28.54,91.65 111.06,154.47 205.07,156.07l40.97 0.7c96.74,1.65 170.7,-87.8 153.06,-185.14l-372.91 -2057.61c-5.42,-24.46 -23.47,-43.9 -47.06,-50.7 -127.85,-36.88 -673.37,-143.69 -660.82,-53.13z"></path> <path fill="#FA6555" fill-rule="nonzero" d="M13105.59 5694.19c0,0 -90.71,-255.18 -413.8,-243.58 -323.1,11.61 -567.06,436.19 -627.52,1348.74 0,0 529.09,-116.02 1148.88,154.64 0,0 34.35,-887.86 -107.56,-1259.8z"></path> <path fill="#FA6555" fill-rule="nonzero" d="M13332.5 5678.83l-228.9 146.51c0,0 -588.39,58.87 -744.58,30.53 -156.19,-28.34 -180.5,-143.17 -180.5,-143.17 0,0 148.6,-203.81 431.35,-254.43 26.57,-4.79 53.34,-5.58 81.91,-7.63 47.95,-3.4 95.91,-1.93 142.92,3.13 279.36,30.16 497.81,225.07 497.81,225.07z"></path> <path fill="#020202" fill-rule="nonzero" d="M12777.1 7870.9l10.89 -3.59 -146.6 -445.66c-33.85,-102.92 -103.5,-188.82 -196.12,-241.87l-5.7 9.95c90.16,51.65 157.96,135.28 190.93,235.5l146.6 445.68z"></path> <path fill="#333333" fill-rule="nonzero" d="M12470.2 5393.78l0.87 -3.65c-0.42,-0.11 -41.59,-10.16 -53.23,-38.24 -6.04,-14.56 -3.16,-31.6 8.55,-50.65 5.52,-8.97 10.6,-17.07 15.27,-24.49 32.05,-51.12 44.06,-70.25 35.27,-112.12l-3.68 0.78c8.48,40.38 -2.43,57.75 -34.78,109.35 -4.66,7.42 -9.75,15.55 -15.27,24.52 -12.39,20.13 -15.35,38.33 -8.82,54.07 12.39,29.84 54.06,40.01 55.83,40.42z"></path> <path fill="#333333" fill-rule="nonzero" d="M12475.09 5165.02c0,0 14.32,64.81 -28.62,132.64 -42.93,67.82 3.8,117.39 61.96,91.3 58.15,-26.1 80.33,48.06 154.68,7.07 74.35,-40.99 -188.02,-231.01 -188.02,-231.01z"></path> <path fill="#FDAD9B" fill-rule="nonzero" d="M12818.72 5451.55c-32.13,-3.44 -60.04,-23.6 -72.81,-53.28l-40.05 -92.99 -11.62 -26.99 -68.32 -158.71 11.85 164.47 7.13 98.71 2.03 28.14c1.65,22.95 -14.39,43.27 -37.05,47.35l-0.4 0.06c-12.15,19.78 -28.95,59.97 21.22,75.94 58.96,18.76 154.32,-27.65 188.54,-82.66 -0.17,-0.02 -0.33,-0.04 -0.51,-0.06z"></path> <path fill="#333333" fill-rule="nonzero" d="M12706.03 5302.57c-0.03,0.9 -0.08,1.82 -0.18,2.72 -3.92,53.02 -60.62,77.78 -60.62,77.78l-0.35 -0.29 -7.13 -98.72c17.34,-6.36 42.04,-12.89 56.49,-5.76 7.55,3.72 12.3,11.15 11.79,24.27z"></path> <path fill="#FDAD9B" fill-rule="nonzero" d="M12463.93 5145.9c0,-105.28 69.18,-190.63 154.53,-190.63 85.34,0 154.52,85.35 154.52,190.63 0,105.29 -69.18,190.64 -154.52,190.64 -85.34,0 -154.53,-85.35 -154.53,-190.64z"></path> <path fill="#FDAD9B" fill-rule="nonzero" d="M12752.31 5174.65c-17.51,16.72 -41.98,18.43 -54.66,3.83 -12.69,-14.61 -8.8,-39.98 8.71,-56.7 17.51,-16.71 41.98,-18.43 54.66,-3.83 12.69,14.6 8.78,39.98 -8.71,56.7z"></path> <path fill="#DB6B49" fill-rule="nonzero" d="M12535.24 5269.26c0,0 52.78,1.21 105.57,-17.33 0,0 4.38,52.03 -52.79,55.51 -33.24,2.04 -52.78,-38.18 -52.78,-38.18z"></path> <path fill="white" fill-rule="nonzero" d="M12535.24 5269.26c0,0 12.77,10.59 42.58,10.46 29.8,-0.12 62.99,-27.79 62.99,-27.79 0,0 -63.6,17.48 -105.57,17.33z"></path> <path fill="#060633" fill-rule="nonzero" d="M12603.51 5147.74c-1.03,-0.28 -1.91,-1.02 -2.34,-2.1 -0.72,-1.8 0.15,-3.83 1.95,-4.56 1.05,-0.43 24.71,-12.6 45.49,10.14 1.32,1.44 1.29,3.64 -0.13,4.98 -1.4,1.35 -3.35,0.96 -4.96,-0.13 -16.15,-10.84 -36.91,-8.8 -37.79,-8.46 -0.73,0.3 -1.51,0.33 -2.23,0.13z"></path> <path fill="#060633" fill-rule="nonzero" d="M12631.32 5186.36c0.27,8.39 -4.45,15.34 -10.53,15.53 -6.08,0.19 -11.23,-6.45 -11.5,-14.84 -0.26,-8.38 4.46,-15.33 10.53,-15.51 6.09,-0.2 11.23,6.43 11.5,14.82z"></path> <path fill="#060633" fill-rule="nonzero" d="M12478.06 5166.06c-1.06,0.14 -2.17,-0.22 -2.97,-1.04 -1.34,-1.38 -1.31,-3.6 0.07,-4.97 0.81,-0.79 18.05,-21.06 45.93,-7.94 1.76,0.82 2.57,2.86 1.77,4.64 -0.79,1.77 -2.72,2.17 -4.63,1.78 -19.07,-3.88 -37.48,5.91 -38.17,6.56 -0.57,0.55 -1.27,0.87 -2,0.96z"></path> <path fill="#060633" fill-rule="nonzero" d="M12518.48 5191.18c3.45,7.65 1.73,15.88 -3.82,18.37 -5.55,2.49 -12.85,-1.68 -16.28,-9.33 -3.44,-7.64 -1.72,-15.88 3.83,-18.37 5.55,-2.49 12.84,1.69 16.27,9.33z"></path> <path fill="#333333" fill-rule="nonzero" d="M12552.84 4989.82c0,0 3.33,66.14 85.94,77.42 82.6,11.27 139.57,46.22 128.48,105.72 -11.09,59.51 -144.24,182.96 -46.38,230.78 97.85,47.81 77.03,-41.35 183.12,-20.68 106.08,20.68 125.22,-121 52.19,-203.21 -73.06,-82.21 -43.47,-299.77 -317.4,-290.12 -273.93,9.65 -173.57,228.18 -173.57,228.18 0,0 87.8,-55.07 87.63,-128.1z"></path> <path fill="white" fill-rule="nonzero" d="M12749.04 5415.98l0.83 -2.06c-20.2,-8.18 -32.1,-19.73 -36.35,-35.36 -11.74,-43.29 39.59,-109.84 84.88,-168.54 12.02,-15.58 23.36,-30.29 33.45,-44.35 28.01,-39.13 30.49,-85.82 6.45,-121.84 -26.71,-40.02 -77.48,-56.94 -132.49,-44.19 -101.75,23.59 -144.27,-37.65 -144.69,-38.28l-1.85 1.25c0.44,0.62 43.81,63.15 147.05,39.19 54.08,-12.52 103.95,4.03 130.13,43.26 23.88,35.77 21.47,80.36 -6.42,119.3 -10.05,14.02 -21.4,28.73 -33.4,44.29 -45.6,59.12 -97.3,126.12 -85.26,170.49 4.38,16.12 17.04,28.52 37.66,36.83z"></path> <path fill="#6F4975" fill-rule="nonzero" d="M12533.82 5147.2c-10.29,-32.39 -29.12,-56.34 -50.38,-64.19 -11.98,-4.27 -23.7,-3.19 -34.13,3.27 -30.76,19.08 -41.95,77.92 -25,131.08 10.29,32.3 29.12,56.35 50.38,64.19 11.88,4.18 23.7,3.19 34.09,-3.28 30.76,-19.17 41.98,-78 25.04,-131.07zm-61.51 140.82c-23.21,-8.55 -43.62,-34.19 -54.56,-68.57 -17.84,-56.04 -5.32,-118.35 27.92,-138.93 12.37,-7.84 26.28,-9.04 40.15,-3.98 23.21,8.55 43.63,34.19 54.56,68.48 17.83,55.95 5.31,118.35 -27.92,139.02 -7.45,4.67 -15.46,6.95 -23.65,6.95 -5.47,0 -10.98,-0.99 -16.5,-2.97z"></path> <g id="_2095345217824"> <image x="12578.82" y="5027.7" width="149.79" height="221.86" xlink:href="doare doação - Ilustração-site_Images\doare doação - Ilustração-site_ImgID1.png"></image> </g> <g id="_2095345218304"> <image x="12417.93" y="5072.07" width="138.69" height="216.32" xlink:href="doare doação - Ilustração-site_Images\doare doação - Ilustração-site_ImgID2.png"></image> </g> <path fill="#6F4975" fill-rule="nonzero" d="M12625.69 5034.61c-37.76,17.8 -58.08,77.11 -45.32,132.27 7.3,31.4 24.55,56.45 46.11,66.87 14.46,6.76 29.77,6.86 44.12,0.31 37.81,-17.8 58.13,-77.12 45.32,-132.27 -7.27,-31.31 -24.45,-56.24 -45.97,-66.77 -7.35,-3.59 -14.96,-5.38 -22.55,-5.38 -7.31,0 -14.62,1.69 -21.72,4.97zm-2.24 205.31c-23.75,-11.53 -41.88,-37.57 -49.74,-71.45 -13.51,-58.14 8.5,-120.94 49.08,-140.03 16.36,-7.64 33.65,-7.54 50.19,0.4 23.71,11.53 41.79,37.56 49.6,71.35 13.55,58.24 -8.46,121.04 -49.11,140.03 -8.04,3.87 -16.34,5.76 -24.63,5.76 -8.5,0 -17.05,-2.09 -25.4,-6.06z"></path> <path fill="#6F4975" fill-rule="nonzero" d="M12534.57 5169.96c1.43,0 2.87,-0.49 4.07,-1.49 0.7,-0.6 17.34,-13.61 46.06,-8.15 3.37,0.5 6.86,-1.58 7.56,-5.06 0.69,-3.49 -1.6,-6.86 -5.08,-7.45 -34.69,-7.26 -55.8,10.03 -56.75,10.73 -2.68,2.28 -3.08,6.36 -0.79,9.05 1.24,1.58 3.08,2.38 4.92,2.38z"></path> <path fill="#FF8548" fill-rule="nonzero" d="M12794.36 6140.88c-3.72,-260.33 -211.86,-468.45 -464.94,-464.85 -253.08,3.6 -455.24,217.55 -451.54,477.88 3.7,260.33 211.87,468.44 464.94,464.85 253.08,-3.6 455.23,-217.55 451.54,-477.88z"></path> <path fill="white" fill-rule="nonzero" d="M12311.42 6509.36l-1.27 -89.01c-49.71,-0.18 -101.33,-15.3 -131.64,-36.91l19.74 -59.34c31.13,20.72 75.92,36.83 123.9,36.14 60.82,-0.86 101.42,-37.58 100.71,-87.8 -0.69,-48.48 -34.52,-77.97 -98.29,-103.51 -87.88,-33.99 -142.43,-73.77 -143.53,-150.44 -1.04,-73.14 48.73,-129.38 127.35,-143.72l-1.26 -89.01 53.11 -0.75 1.21 85.48c51.42,1.03 86.75,14.64 111.81,29.26l-20.59 58.47c-18.14,-10.31 -53.54,-29.2 -108.37,-28.42 -65.97,0.94 -90.24,41.82 -89.75,77.08 0.67,45.82 32.68,68.29 107.67,98.95 88.76,35.76 133.96,80.95 135.08,159.38 0.99,69.62 -45.21,135.5 -133.23,151.74l1.3 91.66 -53.97 0.76z"></path> <path fill="#FDAD9B" fill-rule="nonzero" d="M11910.42 5871.36c-4.64,-6.57 -6.85,-14.92 -5.55,-23.61 2.72,-18.22 19.76,-31.12 38.05,-28.82l81.61 10.24c18.31,2.32 30.93,18.97 28.24,37.15 -2.72,18.22 -19.76,31.13 -38.04,28.83l-81.63 -10.25c-9.56,-1.2 -17.59,-6.32 -22.68,-13.54z"></path> <path fill="#FDAD9B" fill-rule="nonzero" d="M11918.68 5950.71c-4.63,-6.58 -6.84,-14.92 -5.55,-23.61 2.72,-18.22 19.76,-31.12 38.05,-28.83l81.62 10.25c18.28,2.32 30.94,18.95 28.23,37.15 -2.71,18.22 -19.76,31.12 -38.05,28.83l-81.62 -10.25c-9.56,-1.21 -17.58,-6.32 -22.68,-13.54z"></path> <path fill="#FDAD9B" fill-rule="nonzero" d="M11889.31 5998.65c-4.64,-6.58 -6.85,-14.93 -5.57,-23.62 2.73,-18.22 19.76,-31.13 38.06,-28.82l81.61 10.24c18.28,2.32 30.94,18.94 28.24,37.15 -2.72,18.22 -19.75,31.13 -38.05,28.83l-81.61 -10.24c-9.56,-1.2 -17.59,-6.33 -22.68,-13.54z"></path> <path fill="#FDAD9B" fill-rule="nonzero" d="M11881.78 6046.68c-2.89,-4.1 -4.38,-9.23 -3.85,-14.67 1.21,-12.2 12.15,-21.33 24.42,-20.4l79.11 6.04c12.29,0.92 21.27,11.57 20.05,23.8 -1.22,12.19 -12.15,21.33 -24.43,20.41l-79.1 -6.04c-6.82,-0.52 -12.61,-4.03 -16.21,-9.14z"></path> <path fill="#FDAD9B" fill-rule="nonzero" d="M12854.19 6259.65c0,0 -40.72,-123.25 -110.45,-153.42 -69.74,-30.18 -181.62,-16.01 -142.37,11.87 39.25,27.9 99.25,49.66 99.25,49.66 0,0 -130.36,-40.5 -126.62,-5.9 3.74,34.59 117.45,68.72 117.45,68.72 0,0 -158.97,-35.83 -144.86,-4.29 14.11,31.53 135.07,57.89 135.07,57.89 0,0 -149.23,-27.41 -132,8.83 17.26,36.24 123.47,21.85 127.21,56.44 3.73,34.59 30.27,170.72 127.68,172.07l49.66 -261.86z"></path> <path fill="#F18C7E" fill-rule="nonzero" d="M12747.09 6196.41l5.06 -2.41c-10.72,-22.58 -49.47,-28.76 -51.11,-29.01l-0.85 5.55c0.38,0.05 37.45,5.99 46.9,25.87z"></path> <path fill="#F18C7E" fill-rule="nonzero" d="M12747.71 6265.01l4.49 -3.37c-21.15,-28.28 -58.8,-33.64 -60.39,-33.85l-0.75 5.56c0.38,0.06 36.93,5.28 56.65,31.66z"></path> <path fill="#F18C7E" fill-rule="nonzero" d="M12733.98 6315.94l5.25 -1.98c-9.4,-25.01 -55.22,-32.26 -57.16,-32.56l-0.84 5.55c0.45,0.07 44.51,7.04 52.76,28.99z"></path> <path fill="#333333" fill-rule="nonzero" d="M13335.76 5683.89c7.94,23.05 -51.93,66.18 -133.7,96.35 -81.79,30.17 -154.53,35.94 -162.47,12.9 -7.93,-23.05 51.93,-66.19 133.72,-96.35 81.78,-30.18 154.52,-35.94 162.45,-12.9z"></path> <path fill="#FDAD9B" fill-rule="nonzero" d="M12774.32 6481.18l-2.72 -167.27c-0.38,-22.85 17.21,-42.02 40.01,-43.65 115.95,-8.29 197.12,-44.26 241.59,-107.14 61.75,-87.33 55.23,-222.95 38.03,-317.01 -8.81,-48.13 7.08,-80.32 65.22,-111.17 0,0 50.02,-27.52 111.68,-38.02 24.71,-4.22 49.25,5.71 55.61,29.95 9.98,37.94 22.89,96.96 29.05,166.4 14.64,164.94 -17.18,308.42 -92.01,414.92 -91.82,130.72 -239.86,203.04 -440.43,215.33 -24.62,1.51 -45.63,-17.66 -46.04,-42.33z"></path> <g id="_2095345171792"> <image x="13161.35" y="6148.13" width="105.41" height="116.48" xlink:href="doare doação - Ilustração-site_Images\doare doação - Ilustração-site_ImgID3.png"></image> </g> <path fill="#F9AEA6" fill-rule="nonzero" d="M12955.47 6904.96c0,0 -637.26,-121.73 -843.87,-64.31l99.07 146.84 368.35 20.83 376.46 -103.36z"></path> <path fill="#DEEBE9" fill-rule="nonzero" d="M6231.73 2353.78c-14.21,-8.25 -28.67,-16.5 -43.53,-24.64 -4.87,-2.78 -6.61,-8.84 -3.92,-13.72 2.68,-4.77 8.8,-6.46 13.66,-3.97 14.96,8.35 29.61,16.6 43.93,25.04 4.82,2.79 6.4,8.94 3.62,13.73 -1.89,3.17 -5.26,4.96 -8.7,4.96 -1.73,0 -3.48,-0.4 -5.06,-1.39zm85.07 52.57c-13.72,-9.04 -27.78,-17.9 -42.14,-26.84 -4.77,-2.88 -6.22,-9.14 -3.28,-13.81 2.93,-4.77 9.19,-6.16 13.83,-3.28 14.55,8.94 28.8,17.99 42.62,27.03 4.67,3.07 5.97,9.33 2.87,14 -1.93,2.89 -5.11,4.47 -8.4,4.47 -1.88,0 -3.81,-0.49 -5.5,-1.58zm82.08 56.94c-13.17,-9.64 -26.74,-19.39 -40.65,-29.12 -4.57,-3.18 -5.67,-9.44 -2.49,-14.01 3.23,-4.57 9.49,-5.66 14.01,-2.48 14.11,9.94 27.78,19.67 41.05,29.51 4.47,3.28 5.4,9.55 2.12,14.01 -1.98,2.69 -5,4.07 -8.09,4.07 -2.09,0 -4.18,-0.59 -5.96,-1.98zm78.4 61.81c-12.42,-10.43 -25.35,-20.96 -38.71,-31.39 -4.37,-3.49 -5.11,-9.75 -1.68,-14.13 3.47,-4.47 9.78,-5.16 14.11,-1.79 13.57,10.64 26.58,21.37 39.2,32 4.28,3.57 4.82,9.84 1.25,14.11 -1.99,2.38 -4.83,3.57 -7.7,3.57 -2.3,0 -4.59,-0.79 -6.47,-2.38zm73.94 66.88c-11.68,-11.33 -23.8,-22.65 -36.32,-34.08 -4.12,-3.77 -4.42,-10.13 -0.65,-14.21 3.68,-4.08 10.18,-4.28 14.16,-0.7 12.73,11.62 25.05,23.15 36.82,34.68 3.98,3.87 4.07,10.23 0.19,14.21 -1.99,1.99 -4.57,2.98 -7.21,2.98 -2.52,0 -5.06,-0.9 -7,-2.89zm68.52 72.36c-10.64,-12.13 -21.81,-24.46 -33.54,-36.78 -3.83,-4.08 -3.68,-10.44 0.34,-14.21 4.02,-3.77 10.33,-3.67 14.25,0.3 11.93,12.52 23.31,25.04 34.14,37.56 3.62,4.16 3.19,10.53 -0.99,14.11 -1.88,1.69 -4.27,2.48 -6.62,2.48 -2.78,0 -5.61,-1.19 -7.59,-3.47zm62.06 78c-9.4,-13.02 -19.48,-26.13 -30.16,-39.65 -3.42,-4.37 -2.68,-10.73 1.65,-14.11 4.42,-3.57 10.73,-2.69 14.16,1.59 10.88,13.71 21.06,27.23 30.66,40.45 3.23,4.47 2.23,10.74 -2.24,14.02 -1.78,1.28 -3.87,1.87 -5.91,1.87 -3.13,0 -6.15,-1.38 -8.15,-4.16zm54.11 83.36c-8.01,-13.8 -16.65,-28.01 -25.99,-42.43 -3.03,-4.67 -1.68,-10.93 2.98,-13.91 4.57,-2.88 10.83,-1.69 13.92,2.98 9.54,14.8 18.38,29.22 26.49,43.43 2.78,4.77 1.14,10.93 -3.69,13.72 -1.58,0.89 -3.33,1.29 -5.01,1.29 -3.48,0 -6.86,-1.79 -8.69,-5.08zm44.51 88.85c-6.21,-14.4 -13.16,-29.51 -20.97,-45.11 -2.47,-4.98 -0.44,-11.03 4.48,-13.51 5.06,-2.38 11.02,-0.5 13.5,4.57 8.01,15.99 15.16,31.3 21.47,46.1 2.19,5.17 -0.19,11.04 -5.27,13.22 -1.29,0.59 -2.62,0.79 -3.97,0.79 -3.87,0 -7.61,-2.28 -9.25,-6.06zm32.74 93.42c-4.23,-15.61 -9.18,-31.51 -14.75,-47.2 -1.85,-5.26 0.9,-11.04 6.16,-12.83 5.16,-1.88 11.03,0.9 12.82,6.06 5.71,16.3 10.83,32.7 15.15,48.79 1.49,5.36 -1.68,10.83 -7.05,12.32 -0.89,0.2 -1.79,0.3 -2.64,0.3 -4.41,0 -8.49,-2.88 -9.68,-7.45zm16.35 96.6c0,-0.21 -0.09,-17.89 -5.51,-48.3 -0.98,-5.47 2.69,-10.73 8.15,-11.72 5.47,-0.99 10.68,2.69 11.64,8.15 5.75,32.39 5.8,51.06 5.8,51.87 0,5.56 -4.47,10.03 -10.04,10.03 -5.56,0 -10.04,-4.47 -10.04,-10.03z"></path> <path fill="#DEEBE9" fill-rule="nonzero" d="M6217.42 2461.01c-22.35,-22.36 -36.07,-32.6 -36.23,-32.69 -4.46,-3.28 -5.41,-9.55 -2.13,-14.02 3.33,-4.48 9.63,-5.37 14.06,-2.19 0.6,0.5 14.95,11.13 38.52,34.79 3.92,3.87 3.92,10.23 0,14.2 -1.99,1.89 -4.53,2.88 -7.11,2.88 -2.59,0 -5.17,-0.99 -7.11,-2.97zm65.34 74.83c-11.19,-14.31 -21.78,-27.13 -31.61,-38.46 -3.62,-4.17 -3.18,-10.53 1,-14.11 4.22,-3.67 10.53,-3.17 14.21,1 10.03,11.53 20.82,24.54 32.3,39.26 3.38,4.37 2.63,10.63 -1.74,14.11 -1.83,1.38 -4.01,2.08 -6.21,2.08 -2.98,0 -5.96,-1.29 -7.94,-3.87zm57.68 81.19c-9.58,-14.51 -18.92,-28.33 -27.97,-41.24 -3.23,-4.48 -2.14,-10.73 2.38,-14.02 4.52,-3.08 10.82,-2.08 14.01,2.49 9.24,12.91 18.68,26.93 28.37,41.83 3.09,4.57 1.74,10.83 -2.88,13.91 -1.69,1.1 -3.62,1.59 -5.51,1.59 -3.27,0 -6.46,-1.59 -8.4,-4.57zm50.94 85.85c-8.26,-15.1 -16.5,-29.52 -24.71,-43.22 -2.83,-4.77 -1.29,-10.93 3.48,-13.82 4.92,-2.98 10.98,-1.29 13.81,3.47 8.3,13.92 16.65,28.53 25.1,44.03 2.64,4.88 0.85,10.94 -4.02,13.62 -1.54,0.78 -3.18,1.18 -4.82,1.18 -3.53,0 -7.01,-1.89 -8.84,-5.27zm45.17 89.03c-7.27,-15.49 -14.57,-30.39 -21.92,-44.82 -2.48,-4.96 -0.5,-11.02 4.42,-13.5 5.01,-2.69 11.03,-0.59 13.56,4.37 7.36,14.6 14.76,29.72 22.11,45.42 2.39,5.06 0.2,11.03 -4.82,13.41 -1.39,0.59 -2.83,0.9 -4.27,0.9 -3.78,0 -7.4,-2.09 -9.08,-5.77zm39.94 91.73c-6.41,-15.8 -12.83,-31.11 -19.33,-46.1 -2.19,-5.07 0.15,-11.03 5.22,-13.22 5.37,-2.39 11.08,0.19 13.26,5.26 6.51,15 13.03,30.51 19.48,46.51 2.13,5.16 -0.35,11.02 -5.51,13.11 -1.24,0.48 -2.54,0.69 -3.77,0.69 -3.97,0 -7.76,-2.39 -9.34,-6.27zm35.12 93.51c-5.62,-16 -11.23,-31.69 -16.94,-46.9 -1.99,-5.26 0.65,-11.04 5.87,-13.01 5.01,-1.59 10.98,0.79 12.92,5.86 5.81,15.41 11.53,31.31 17.14,47.5 1.84,5.16 -0.94,10.94 -6.15,12.82 -1.1,0.3 -2.24,0.5 -3.33,0.5 -4.18,0 -8.05,-2.58 -9.5,-6.76zm30.66 95.31c-4.87,-16.3 -9.83,-32.3 -14.85,-47.8 -1.7,-5.26 1.23,-10.94 6.5,-12.62 5.57,-2.09 10.98,1.2 12.68,6.46 5.01,15.71 9.98,31.71 14.96,48.2 1.59,5.26 -1.44,10.93 -6.76,12.51 -0.95,0.32 -1.93,0.4 -2.88,0.4 -4.33,0 -8.34,-2.77 -9.64,-7.15zm26.58 96.6c-4.22,-16.39 -8.44,-32.6 -12.82,-48.4 -1.49,-5.37 1.69,-10.94 7.01,-12.41 5.26,-1.4 10.89,1.68 12.37,7.04 4.38,16.01 8.69,32.2 12.92,48.8 1.39,5.36 -1.88,10.83 -7.26,12.22 -0.84,0.2 -1.68,0.3 -2.49,0.3 -4.47,0 -8.6,-2.98 -9.74,-7.54zm22.82 97.48c-3.58,-16.59 -7.22,-32.89 -10.98,-48.89 -1.29,-5.36 2.08,-10.82 7.5,-12.12 5.22,-0.8 10.83,2.18 12.07,7.54 3.79,16.2 7.52,32.5 11.08,49.29 1.15,5.37 -2.27,10.73 -7.75,11.93 -0.7,0.09 -1.39,0.2 -2.09,0.2 -4.67,0 -8.85,-3.19 -9.83,-7.96zm19.38 98.29c-3.03,-16.6 -6.13,-33.1 -9.3,-49.29 -1.05,-5.37 2.49,-10.73 7.95,-11.72 5.46,-1.59 10.78,2.47 11.82,7.94 3.19,16.2 6.27,32.7 9.29,49.49 0.99,5.47 -2.63,10.73 -8.1,11.72 -0.59,0.1 -1.2,0.1 -1.79,0.1 -4.77,0 -8.99,-3.37 -9.88,-8.24zm16.04 98.97c-2.43,-16.79 -5.02,-33.28 -7.66,-49.59 -0.89,-5.46 2.84,-10.63 8.35,-11.52 5.92,-1 10.68,2.88 11.53,8.35 2.63,16.29 5.22,32.99 7.65,49.78 0.8,5.56 -2.98,10.63 -8.49,11.43 -0.5,0.1 -0.99,0.1 -1.44,0.1 -4.91,0 -9.24,-3.58 -9.94,-8.55zm13.07 99.27c-1.94,-16.89 -4.02,-33.38 -6.16,-49.78 -0.7,-5.47 3.19,-10.53 8.7,-11.23 5.72,-1.2 10.53,3.18 11.27,8.65 2.15,16.39 4.23,33.1 6.16,49.99 0.65,5.56 -3.33,10.53 -8.84,11.22l-1.14 0c-5.07,0 -9.39,-3.78 -9.99,-8.85zm10.24 99.68c-1.49,-16.69 -3.09,-33.39 -4.77,-49.9 -0.59,-5.46 3.43,-10.43 8.94,-11.02 5.66,0.09 10.49,3.48 11.03,9.04 1.69,16.51 3.28,33.2 4.87,50.08 0.5,5.47 -3.57,10.43 -9.14,10.94l-0.9 0c-5.16,0 -9.53,-3.87 -10.03,-9.14zm7.7 100.07c-1.09,-16.89 -2.29,-33.59 -3.53,-50 -0.4,-5.55 3.73,-10.43 9.3,-10.82 5.71,0.29 10.32,3.76 10.78,9.23 1.24,16.61 2.44,33.29 3.53,50.39 0.34,5.47 -3.83,10.23 -9.4,10.63l-0.65 0c-5.26,0 -9.68,-4.08 -10.03,-9.44zm5.21 100.07c-0.74,-16.8 -1.47,-33.49 -2.33,-50.09 -0.29,-5.56 3.97,-10.23 9.55,-10.53 5.95,-0.1 10.32,3.97 10.52,9.54 0.84,16.6 1.59,33.29 2.35,50.29 0.25,5.46 -4.02,10.23 -9.59,10.43l-0.44 0c-5.37,0 -9.8,-4.18 -10.05,-9.64zm2.83 100.38c-0.3,-16.9 -0.69,-33.6 -1.2,-50.19 -0.19,-5.56 4.17,-10.15 9.75,-10.34l0.29 0c5.42,0 9.89,4.28 10.05,9.75 0.49,16.59 0.89,33.48 1.19,50.38 0.09,5.56 -4.33,10.14 -9.84,10.24l-0.19 0c-5.46,0 -9.94,-4.37 -10.04,-9.83zm10.58 110.39c-5.56,0 -9.98,-4.57 -9.94,-10.14l0.05 -16.69c0.06,-11.23 0,-22.36 -0.09,-33.4 -0.06,-5.55 4.37,-10.13 9.93,-10.13l0.1 0c5.51,0 9.98,4.47 10.03,9.94 0.1,11.23 0.16,22.36 0.1,33.59l-0.05 16.88c-0.06,5.47 -4.52,9.95 -10.04,9.95l-0.1 0zm-1.49 100.47c-5.55,-0.1 -9.94,-4.77 -9.78,-10.23 0.39,-16.8 0.69,-33.6 0.95,-50.19 0.05,-5.47 4.56,-9.83 10.03,-9.83l0.15 0c5.57,0.09 9.98,4.67 9.89,10.23 -0.25,16.59 -0.55,33.39 -0.95,50.19 -0.09,5.46 -4.57,9.83 -10.04,9.83l-0.25 0z"></path> <path fill="#DEEBE9" fill-rule="nonzero" d="M6238.49 2276.57c-30.8,-4.17 -49.03,-5.07 -49.24,-5.07 -5.51,-0.2 -9.84,-4.96 -9.59,-10.43 0.25,-5.67 5.72,-9.35 10.49,-9.65 0.74,0 19.28,0.9 51.12,5.26 5.47,0.7 9.34,5.77 8.55,11.33 -0.65,4.98 -4.97,8.65 -9.94,8.65 -0.45,0 -0.91,0 -1.4,-0.09zm97.98 18.59c-17.44,-4.08 -33.84,-7.56 -48.79,-10.43 -5.46,-0.99 -9.04,-6.27 -8.01,-11.73 1.05,-5.37 5.87,-9.74 11.79,-7.94 15.26,2.87 31.84,6.36 49.68,10.62 5.37,1.21 8.75,6.66 7.45,12.03 -1.1,4.68 -5.21,7.76 -9.79,7.76 -0.75,0 -1.54,-0.11 -2.34,-0.3zm96 27.33c-16.45,-5.57 -32.34,-10.44 -47.65,-14.81 -5.37,-1.5 -8.46,-7.06 -6.97,-12.43 1.49,-5.26 7.11,-8.84 12.43,-6.86 15.59,4.37 31.8,9.44 48.53,15 5.27,1.79 8.1,7.45 6.38,12.71 -1.4,4.19 -5.33,6.87 -9.55,6.87 -1.04,0 -2.13,-0.1 -3.17,-0.49zm93.06 35.57c-15.61,-6.65 -31.06,-13.02 -46.21,-18.88 -5.18,-1.99 -7.76,-7.76 -5.77,-12.92 2.04,-5.36 7.8,-7.95 13.02,-5.76 15.35,5.87 31,12.22 46.9,19.07 5.13,2.19 7.45,8.16 5.27,13.22 -1.64,3.76 -5.37,6.06 -9.24,6.06 -1.35,0 -2.69,-0.2 -3.97,-0.8zm89.33 44.12c-14.8,-8.25 -29.51,-15.89 -44.12,-23.06 -5.01,-2.49 -7.05,-8.45 -4.62,-13.51 2.48,-4.87 8.55,-7.06 13.47,-4.57 14.9,7.35 29.91,15.2 45.01,23.46 4.87,2.68 6.61,8.83 3.92,13.71 -1.84,3.28 -5.25,5.16 -8.79,5.16 -1.64,0 -3.34,-0.4 -4.87,-1.18zm84.57 52.37c-13.86,-9.54 -27.77,-18.58 -41.64,-27.23 -4.72,-2.98 -6.17,-9.15 -3.23,-13.91 2.98,-4.67 9.25,-5.87 13.86,-3.19 14.16,8.86 28.27,18.1 42.43,27.83 4.57,3.08 5.72,9.33 2.58,13.91 -1.98,2.88 -5.12,4.37 -8.3,4.37 -1.98,0 -3.97,-0.59 -5.7,-1.79zm78.76 60.82c-12.83,-10.83 -25.64,-21.36 -38.62,-31.4 -4.37,-3.39 -5.16,-9.73 -1.79,-14.11 3.49,-4.47 9.74,-5.17 14.13,-1.79 13.17,10.24 26.28,20.97 39.28,32 4.23,3.58 4.78,9.94 1.2,14.11 -2.04,2.37 -4.87,3.57 -7.7,3.57 -2.29,0 -4.62,-0.79 -6.51,-2.38zm71.59 68.87c-11.42,-12.33 -23.1,-24.05 -34.88,-35.39 -4.02,-3.86 -4.12,-10.23 -0.3,-14.21 3.83,-3.97 10.18,-4.07 14.21,-0.29 12.08,11.52 23.96,23.64 35.69,36.16 3.77,4.08 3.57,10.44 -0.5,14.22 -1.94,1.78 -4.42,2.68 -6.86,2.68 -2.69,0 -5.37,-1.08 -7.36,-3.18zm32.95 37.37c-3.38,-3.87 -3.18,-9.83 0.54,-13.51 4.08,-4.08 10.45,-3.97 14.22,-0.1 0.74,0.8 1.64,1.98 2.14,2.98 2.47,4.97 0.44,11.03 -4.48,13.51 -1.48,0.69 -2.98,0.99 -4.51,0.99 -3.04,0 -6.02,-1.39 -7.9,-3.87z"></path> <path fill="#DEEBE9" fill-rule="nonzero" d="M6159.38 2607.69c-15.21,-28.33 -24.64,-42.73 -24.74,-42.84 -3.02,-4.67 -1.79,-10.93 2.88,-14.01 4.52,-2.87 10.84,-1.69 13.92,2.88 0.4,0.71 9.99,15.3 25.63,44.42 2.63,4.88 0.81,11.04 -4.07,13.62 -1.55,0.79 -3.14,1.2 -4.77,1.2 -3.58,0 -7.05,-1.9 -8.85,-5.27zm43.68 89.73c-7.45,-16.69 -14.5,-31.8 -21.07,-45.32 -2.44,-4.97 -0.34,-11.02 4.67,-13.41 4.97,-2.48 10.98,-0.39 13.42,4.67 6.65,13.72 13.81,29.03 21.36,45.91 2.23,5.08 0,11.04 -5.07,13.21 -1.33,0.6 -2.73,0.9 -4.12,0.9 -3.83,0 -7.5,-2.2 -9.19,-5.97zm38.27 92.53c-6.31,-16.4 -12.53,-31.91 -18.54,-46.51 -2.13,-5.16 0.35,-11.03 5.47,-13.22 5.13,-1.98 10.98,0.3 13.11,5.47 6.13,14.8 12.34,30.51 18.74,46.89 1.99,5.28 -0.59,11.05 -5.76,13.03 -1.2,0.49 -2.44,0.7 -3.62,0.7 -4.02,0 -7.85,-2.39 -9.39,-6.36zm33.78 94.2c-5.47,-16.4 -10.93,-32.09 -16.35,-47.3 -1.88,-5.17 0.8,-10.94 6.06,-12.83 5.01,-1.78 10.98,0.8 12.83,6.06 5.51,15.21 10.97,31.1 16.55,47.7 1.72,5.26 -1.1,10.94 -6.38,12.73 -1.03,0.4 -2.12,0.5 -3.17,0.5 -4.22,0 -8.15,-2.69 -9.54,-6.86zm29.77 95.59c-4.82,-16.4 -9.64,-32.49 -14.41,-48.01 -1.64,-5.36 1.3,-10.93 6.61,-12.61 5.36,-1.79 11.04,1.4 12.56,6.65 4.88,15.71 9.7,31.81 14.51,48.4 1.59,5.26 -1.49,10.83 -6.81,12.42 -0.94,0.3 -1.87,0.4 -2.83,0.4 -4.37,0 -8.35,-2.78 -9.64,-7.26zm26.08 96.69c-4.12,-16.49 -8.34,-32.59 -12.56,-48.38 -1.48,-5.37 1.69,-10.83 7.05,-12.34 5.47,-0.99 10.88,1.8 12.33,7.16 4.33,15.8 8.55,32.09 12.67,48.79 1.34,5.36 -1.93,10.82 -7.3,12.13 -0.84,0.19 -1.63,0.29 -2.43,0.29 -4.53,0 -8.65,-3.08 -9.75,-7.66zm22.61 97.6c-3.52,-16.5 -7.15,-32.9 -10.88,-48.8 -1.24,-5.36 2.09,-10.83 7.51,-12.12 5.76,-0.49 10.77,2.08 12.08,7.55 3.71,16.1 7.44,32.49 10.97,49.19 1.14,5.47 -2.34,10.73 -7.75,11.93 -0.69,0.09 -1.39,0.2 -2.09,0.2 -4.67,0 -8.83,-3.19 -9.83,-7.95zm19.48 98.48c-3.08,-16.59 -6.21,-33.09 -9.4,-49.29 -1.04,-5.36 2.49,-10.73 7.96,-11.72 5.41,-1.39 10.72,2.39 11.82,7.95 3.18,16.2 6.31,32.7 9.4,49.48 0.99,5.47 -2.6,10.64 -8.05,11.73 -0.64,0.1 -1.23,0.1 -1.83,0.1 -4.77,0 -9,-3.38 -9.89,-8.25zm16.35 98.88c-2.54,-16.69 -5.17,-33.29 -7.85,-49.59 -0.9,-5.47 2.84,-10.63 8.3,-11.53 5.26,-0.89 10.64,2.78 11.57,8.35 2.69,16.29 5.32,32.89 7.85,49.8 0.84,5.47 -2.93,10.62 -8.44,11.42 -0.5,0.11 -1,0.11 -1.49,0.11 -4.91,0 -9.19,-3.59 -9.94,-8.55zm13.41 99.38c-2.04,-16.79 -4.17,-33.38 -6.4,-49.69 -0.75,-5.56 3.13,-10.63 8.64,-11.34 5.32,-1.08 10.58,3.19 11.34,8.55 2.23,16.5 4.37,33.1 6.4,50.09 0.65,5.47 -3.27,10.53 -8.79,11.12 -0.39,0.1 -0.79,0.1 -1.19,0.1 -5.01,0 -9.39,-3.77 -9.99,-8.84zm10.68 99.67c-1.58,-16.79 -3.27,-33.49 -5.01,-49.89 -0.59,-5.56 3.43,-10.53 8.95,-11.12 5.46,0.39 10.43,3.47 11.02,8.93 1.75,16.6 3.44,33.29 5.02,50.29 0.56,5.47 -3.52,10.43 -9.04,10.93l-0.94 0c-5.13,0 -9.55,-3.87 -10,-9.14zm7.95 100.08c-1.09,-17 -2.33,-33.6 -3.67,-50.09 -0.44,-5.57 3.67,-10.33 9.24,-10.84 5.37,0.91 10.33,3.69 10.84,9.25 1.32,16.5 2.57,33.29 3.67,50.38 0.34,5.48 -3.83,10.24 -9.4,10.64l-0.64 0c-5.26,0 -9.69,-4.07 -10.05,-9.33zm5.47 99.97c-0.69,-16.8 -1.49,-33.49 -2.38,-50.09 -0.3,-5.47 3.97,-10.24 9.5,-10.53l0.55 0c5.31,0 9.73,4.17 10.03,9.54 0.9,16.6 1.69,33.29 2.39,50.28 0.24,5.57 -4.08,10.24 -9.65,10.43l-0.4 0c-5.36,0 -9.83,-4.16 -10.04,-9.63zm3.04 100.36c-0.3,-16.89 -0.7,-33.59 -1.2,-50.18 -0.2,-5.57 4.17,-10.14 9.74,-10.33l0.3 0c5.41,0 9.88,4.26 10.04,9.73 0.5,16.6 0.89,33.49 1.2,50.39 0.09,5.56 -4.33,10.13 -9.84,10.23l-0.2 0c-5.46,0 -9.92,-4.37 -10.03,-9.84zm10.63 110.42c-5.57,0 -10.04,-4.59 -9.99,-10.15l0.06 -22.27 -0.1 -27.81c-0.04,-5.58 4.42,-10.14 9.99,-10.14l0.05 0c5.51,0 10.04,4.47 10.04,9.94l0.1 28.01 -0.06 22.47c0,5.46 -4.51,9.94 -10.04,9.94l-0.04 0zm-1.88 100.45c-5.58,-0.1 -9.95,-4.76 -9.75,-10.33 0.5,-16.79 0.85,-33.58 1.1,-50.17 0.04,-5.47 4.57,-9.84 10.04,-9.84l0.14 0c5.57,0.09 9.99,4.66 9.89,10.23 -0.24,16.6 -0.59,33.39 -1.09,50.39 -0.15,5.46 -4.62,9.73 -10.04,9.73l-0.29 0z"></path> <path fill="#666666" fill-rule="nonzero" d="M9058.94 7066.84c-135.12,40.01 -455.05,24.3 -693.64,-203.38 -18.31,-17.48 -96.31,-20.78 -121.37,-24.28 -146.85,-20.47 -643.46,14.33 -968.88,151.11 -38.63,16.22 -52.94,63.68 -30.54,99.05l150.46 237.68c64.63,0 96.46,78.51 50.11,123.56 -167.71,163.03 -449.65,469.87 -596.3,814.06 0,0 436.95,782.32 1948.07,768.94 0,0 105.69,-736.81 132.51,-1173.29 6.98,-113.69 157.94,-152.68 215.74,-54.52 1.35,2.29 2.6,4.54 3.75,6.75l302.69 -228.26c39.16,-29.52 49.18,-84.08 23.03,-125.58 -59.73,-94.78 -174.96,-259.58 -316.84,-373.08 -27.73,-22.2 -64.73,-28.84 -98.8,-18.76z"></path> <path fill="#F9AEA6" fill-rule="nonzero" d="M6869.01 7676.95c98.21,29.07 369.54,88.51 542.96,-76.97 13.31,-12.71 30.47,-20.51 48.7,-23.06 106.73,-14.88 468.37,-55.02 704.9,44.38 28.06,11.8 38.47,46.29 22.2,72l-109.35 172.75c-46.99,0 -70.12,57.06 -36.44,89.8 121.9,118.49 326.83,341.51 433.41,591.68 0,0 -317.58,568.6 -1415.9,558.88 0,0 -76.81,-535.52 -96.31,-852.77 -5.07,-82.64 -114.78,-110.97 -156.8,-39.63 -0.98,1.67 -1.89,3.3 -2.73,4.9l-219.99 -165.9c-28.46,-21.46 -35.75,-61.12 -16.75,-91.28 43.41,-68.89 127.16,-188.66 230.28,-271.16 20.16,-16.12 47.06,-20.96 71.81,-13.63z"></path> <path fill="#FDAD9B" fill-rule="nonzero" d="M6722.96 5757.56c43.54,-42.88 -85.97,-203.15 -85.97,-203.15 -16.63,-11.68 -293.91,251.11 -611.6,150.39 -113.13,-35.87 -269.58,-233.91 -280.86,-263.31 -1.5,-3.92 -250.53,86.1 -250.53,86.1 20.43,53.28 44.05,221.79 165.82,333.88 251.93,231.88 830.21,209.28 1063.13,-103.92z"></path> <path fill="#66192D" fill-rule="nonzero" d="M5244.07 8955.01c0,0 2.16,85.98 60.33,110.23 58.17,24.26 226.75,46.14 163.77,101.42 -36.15,31.72 -206.48,11.23 -254.57,11.23 -48.1,0 -93.25,20.95 -128.99,-11.23 -39.31,-35.4 0,-211.64 0,-211.64 0,0 41.5,21.62 78.83,20.65 53.78,-1.4 80.63,-20.65 80.63,-20.65z"></path> <path fill="#22A59A" fill-rule="nonzero" d="M5746 6360.27c0,0 11.61,388.01 -112.22,1132.38 -89.39,537.38 -194.93,1078.88 -246.71,1338.48 -18.52,92.87 -96.62,160.77 -189.19,164.48l-49.73 1.99c-100.08,4.02 -181.31,-81.95 -174.01,-184.16l125.6 -1756.33 30.96 -578.06 615.29 -118.78z"></path> <path fill="#66192D" fill-rule="nonzero" d="M4693.06 8955.01c0,0 2.16,85.98 60.34,110.23 58.17,24.26 226.74,46.14 163.77,101.42 -36.14,31.72 -206.49,11.23 -254.58,11.23 -48.08,0 -93.24,20.95 -128.98,-11.23 -39.32,-35.4 0,-211.64 0,-211.64 0,0 41.5,21.62 78.82,20.65 53.78,-1.4 80.63,-20.65 80.63,-20.65z"></path> <path fill="#22A59A" fill-rule="nonzero" d="M5195 6360.27c0,0 11.61,388.01 -112.22,1132.38 -89.4,537.38 -194.92,1078.88 -246.71,1338.48 -18.52,92.87 -96.62,160.77 -189.19,164.48l-49.73 1.99c-100.08,4.02 -181.31,-81.95 -174.01,-184.16l125.6 -1756.33 30.96 -578.06 615.29 -118.78z"></path> <path fill="#333333" fill-rule="nonzero" d="M4518.87 6785.51c1.2,46.81 284.29,65.4 634.41,54.48 350.12,-10.92 629.9,-59.34 628.7,-106.15 -1.21,-46.81 -282.92,-74.31 -633.04,-63.38 -350.14,10.92 -631.28,68.23 -630.07,115.05z"></path> <path fill="#FF443C" fill-rule="nonzero" d="M4604.58 5460.15c0,0 61.91,-245.38 518.7,-247.87 658.74,-3.6 597.75,601.69 658.7,1521.57 0,0 -648.87,-91.77 -1263.44,40.15 0,0 -57.01,-938.92 86.04,-1313.85z"></path> <path fill="#FF443C" fill-rule="nonzero" d="M4435.97 5424.96l298.34 165.07c0,0 653.26,59.32 826.67,30.75 173.41,-28.57 221,-155.91 221,-155.91 0,0 -184.71,-191.1 -498.64,-242.13 -29.5,-4.83 -60.09,-8.38 -91.8,-10.45 -53.25,-3.43 -106.58,-2.72 -158.7,3.16 -397.88,44.85 -596.87,209.5 -596.87,209.5z"></path> <path fill="#FDAD9B" fill-rule="nonzero" d="M5060.48 5156.12l34.48 -111.28 10.04 -32.4 59.01 -190.5 7.77 189.49 4.65 113.74 1.47 36c0.99,24.45 15.88,29.58 34.02,50.81 7.34,8.61 54.36,60.78 0.99,84.35 -66.45,29.36 -190.68,-15.1 -237.92,-73.33 0.37,-0.08 74.33,-30.92 85.48,-66.88z"></path> <path fill="#F9AEA6" fill-rule="nonzero" d="M5726.85 6771.71c0,0 -379.36,-111.61 -1165.05,41.59l-6.04 113.02 1151.73 40.71 19.36 -195.32z"></path> <path fill="#333333" fill-rule="nonzero" d="M4429.76 5431.84c-25.3,35.79 11.97,106.49 83.22,157.91 71.25,51.42 149.52,64.1 174.82,28.31 25.28,-35.78 -11.97,-106.48 -83.22,-157.91 -71.27,-51.42 -149.53,-64.1 -174.82,-28.31z"></path> <path fill="#FDAD9B" fill-rule="nonzero" d="M4166.89 6957.01l0 0c-14.72,2.71 -24.56,16.97 -21.84,31.69l42.12 228.54c2.72,14.73 16.99,24.56 31.71,21.84 14.72,-2.72 24.56,-16.99 21.84,-31.71l-42.13 -228.53c-2.71,-14.73 -16.98,-24.55 -31.69,-21.84z"></path> <path fill="#FDAD9B" fill-rule="nonzero" d="M4235.41 6944.37l0 0c-14.73,2.71 -24.54,16.97 -21.83,31.71l47.1 255.59c2.72,14.72 16.99,24.55 31.71,21.84 14.72,-2.71 24.55,-16.99 21.84,-31.71l-47.12 -255.59c-2.71,-14.73 -16.97,-24.55 -31.7,-21.84z"></path> <path fill="#FDAD9B" fill-rule="nonzero" d="M4229.31 6807.95l-6.37 7.31c-11.88,13.65 -10.43,34.55 3.22,46.43l132.98 115.79c13.65,11.89 34.55,10.46 46.44,-3.2l6.36 -7.29c11.9,-13.65 10.45,-34.55 -3.2,-46.44l-133 -115.81c-13.65,-11.88 -34.54,-10.44 -46.43,3.22z"></path> <path fill="#FDAD9B" fill-rule="nonzero" d="M4303.94 6931.74l0 0c-14.73,2.71 -24.54,16.98 -21.84,31.7l37.77 204.88c2.71,14.72 16.97,24.54 31.69,21.83 14.73,-2.72 24.55,-16.98 21.83,-31.7l-37.76 -204.88c-2.72,-14.72 -16.99,-24.55 -31.7,-21.83z"></path> <path fill="#FDAD9B" fill-rule="nonzero" d="M4096.39 6835.42c0,0 -53.17,146.2 5.28,240.02 20.23,32.47 220.96,-10.26 232.46,-51.55 11.49,-41.29 -27.5,-177.17 -27.5,-177.17l-210.24 -11.31z"></path> <path fill="#FDAD9B" fill-rule="nonzero" d="M4098.79 6969.35l0 0c-14.69,2.71 -24.51,16.94 -21.8,31.64l37.69 204.45c2.71,14.69 16.94,24.5 31.63,21.79 14.7,-2.71 24.5,-16.95 21.8,-31.64l-37.68 -204.45c-2.71,-14.69 -16.95,-24.5 -31.64,-21.79z"></path> <path fill="#FDAD9B" fill-rule="nonzero" d="M4347.84 6866.28c27.47,-302.37 90.47,-734.65 234.68,-1077.01 33.41,-79.33 47.33,-109.13 73.4,-152.43 20.96,-34.86 -16.58,-111.46 -75.83,-147.98 -55.59,-34.29 -142.16,-28.66 -155.84,-11.7 -23.29,28.86 -48.15,84.16 -86.82,171.95 -134.38,305.07 -214.89,699.13 -247.5,1207.2l257.9 9.99z"></path> <path fill="#333333" fill-rule="nonzero" d="M5315.87 4750.41c0,0 12.03,46.11 0,103.93 -12.03,57.8 -70.83,-84.3 -70.83,-84.3l70.83 -19.63z"></path> <path fill="#FDAD9B" fill-rule="nonzero" d="M5322.86 4871.01c-14.68,-111.78 -101.72,-192.53 -194.42,-180.35 -92.69,12.17 -155.94,112.65 -141.27,224.42 14.68,111.78 101.72,192.53 194.41,180.37 92.7,-12.17 155.96,-112.66 141.28,-224.43z"></path> <path fill="#333333" fill-rule="nonzero" d="M4982.94 4856.65l81.94 -8.51c18.01,-1.87 34.5,-11.55 44.24,-26.81 16.79,-26.27 37,-39.77 113.43,-36.9 96.8,3.63 160.71,-54.07 171.16,-104.71 10.68,-51.69 -38.86,-86.73 -87.47,-62.08 -48.62,24.64 -27.75,-35.8 -74.5,-42.22 -87.36,-11.97 -103.72,55.36 -175.26,53.17 -93.78,-2.87 -261.77,68.39 -182.1,233.49l108.54 -5.41z"></path> <path fill="#060633" fill-rule="nonzero" d="M5163.92 4884.5c0.88,-0.56 1.5,-1.5 1.58,-2.62 0.16,-1.89 -1.24,-3.54 -3.12,-3.7 -1.11,-0.09 -26.67,-4.66 -39.55,22.51 -0.82,1.71 -0.16,3.76 1.54,4.61 1.7,0.84 3.41,-0.07 4.61,-1.55 11.96,-14.75 31.92,-18.79 32.85,-18.73 0.77,0.06 1.49,-0.14 2.1,-0.52z"></path> <path fill="#060633" fill-rule="nonzero" d="M5149.04 4928.52c2.15,7.9 8.55,13.03 14.28,11.46 5.74,-1.56 8.64,-9.23 6.48,-17.14 -2.15,-7.89 -8.54,-13.03 -14.28,-11.46 -5.73,1.57 -8.64,9.23 -6.48,17.14z"></path> <path fill="#060633" fill-rule="nonzero" d="M5290.87 4874.31c0.8,-0.14 1.49,-0.74 1.85,-1.7 0.61,-1.64 0.02,-3.72 -1.32,-4.65 -0.79,-0.54 -18.4,-15.24 -34.99,3.99 -1.05,1.2 -1.09,3.33 -0.07,4.79 1.03,1.46 2.52,1.35 3.79,0.51 12.66,-8.38 28.41,-3.78 29.05,-3.34 0.55,0.38 1.15,0.51 1.69,0.41z"></path> <path fill="#060633" fill-rule="nonzero" d="M5259.58 4909.48c-1.01,8.12 2.94,15.31 8.84,16.05 5.9,0.73 11.49,-5.25 12.51,-13.38 1.01,-8.12 -2.94,-15.31 -8.84,-16.05 -5.88,-0.73 -11.49,5.25 -12.51,13.38z"></path> <path fill="#333333" fill-rule="nonzero" d="M4874.39 4862.06c0,0 56.58,122.12 136.84,131.08 0,0 -64.89,-93.06 71.88,-149.78 0,0 -125.57,-19.76 -208.71,18.7z"></path> <path fill="#FDAD9B" fill-rule="nonzero" d="M4987.52 4929.46c17.17,10.92 38.99,7.34 48.75,-8 9.76,-15.34 3.75,-36.63 -13.4,-47.54 -17.17,-10.92 -39,-7.34 -48.76,8 -9.75,15.34 -3.75,36.62 13.41,47.54z"></path> <path fill="#333333" fill-rule="nonzero" d="M5083.1 4843.36c0,0 -10.95,102.48 9.91,121.85 20.86,19.38 158.58,27.71 222.85,2.87 1.08,65.81 -45.32,123.92 -110.23,134.82 -21.48,3.61 -43.7,3.63 -65.76,-0.22 -44.98,-7.87 -88.73,-26.49 -107.28,-68.22 -5.65,-12.71 10.77,-90.83 10.77,-90.83 0,0 6.17,-45.86 -20.5,-69.72 0,0 30.8,-27.68 60.24,-30.55z"></path> <path fill="white" fill-rule="nonzero" d="M5281.95 5005.05c0,0 -52.78,14.28 -110.43,8.69 0,0 8.46,53.39 66.8,42.76 33.94,-6.19 43.63,-51.46 43.63,-51.46z"></path> <path fill="#66192D" fill-rule="nonzero" d="M5295.85 4609.57c0.46,0 0.93,-0.01 1.41,-0.02l-0.15 -4.63c-22.3,0.56 -24.28,-17.15 -24.36,-17.91l-4.6 0.42c0.03,0.22 2.32,22.14 27.7,22.14z"></path> <path fill="white" fill-rule="nonzero" d="M5249.99 4757.3c0.26,-0.08 26.61,-7.8 53.14,-22.11 35.34,-19.05 54.99,-41.1 56.8,-63.77 1.27,-15.78 -1.49,-26.37 -8.46,-32.37 -11.09,-9.54 -30.28,-5.08 -47.21,-1.12 -2.51,0.58 -4.97,1.17 -7.32,1.67l0.48 2.26c2.37,-0.51 4.84,-1.09 7.35,-1.68 16.42,-3.82 35,-8.15 45.19,0.63 6.37,5.48 8.88,15.42 7.67,30.43 -4.26,53.02 -107.24,83.55 -108.29,83.85l0.65 2.22z"></path> <path fill="white" fill-rule="nonzero" d="M5047.19 4649.77c37.37,0 65.28,-9.72 83.4,-18.99 24.75,-12.66 36.7,-26.82 37.21,-27.41l-1.78 -1.48c-0.48,0.56 -48.92,57.08 -149.44,43.46l-0.31 2.29c10.93,1.48 21.25,2.13 30.92,2.13z"></path> <path fill="#F18C7E" fill-rule="nonzero" d="M4250.21 6120.41c-2.19,13.26 -0.76,26.24 4.01,36.54 4.43,9.56 11.21,15.54 19.1,16.84 7.82,1.27 16.23,-2.18 23.5,-9.81 7.83,-8.21 13.34,-20.05 15.53,-33.33 4.3,-26.15 -6.28,-50.61 -23.12,-53.38 -1.06,-0.19 -2.12,-0.27 -3.19,-0.27 -15.85,0 -31.79,18.9 -35.84,43.41zm21.27 64.54c-11.69,-1.92 -21.47,-10.17 -27.53,-23.24 -5.72,-12.33 -7.45,-27.65 -4.89,-43.14 5.4,-32.76 28.79,-56.28 52.01,-52.45 23.29,3.84 37.83,33.62 32.43,66.38 -2.54,15.49 -9.11,29.43 -18.48,39.28 -8.47,8.89 -18.38,13.6 -28.36,13.6 -1.72,0 -3.46,-0.14 -5.18,-0.43z"></path> <path fill="#666666" fill-rule="nonzero" d="M6804.9 5450.63c0,0 -83.24,151.64 -298.48,136.73 0,0 -226.81,7.33 -322.66,330.55l189.02 133.2c51.54,-34.43 107.33,-16.21 101.66,21.21 -14.44,95.69 -41.26,273.4 -76.59,507.43 -7.41,49.03 28.32,93.96 77.74,97.98 207.33,16.88 707.02,20.31 837.91,-317.87 0,0 -63.91,-334.61 -202.39,-547.85 -32.77,-50.47 12.22,-115.52 70.66,-101.15 0.93,0.22 1.86,0.46 2.8,0.7l-37.5 -186.83c0,0 -202.1,-116.46 -342.19,-74.13z"></path> <path fill="#FDAD9B" fill-rule="nonzero" d="M6567.18 5519.72c2.46,-7.67 7.81,-14.45 15.53,-18.65 16.19,-8.77 36.74,-2.91 45.91,13.1l40.87 71.38c9.16,16.02 3.42,36.11 -12.73,44.9 -16.2,8.77 -36.75,2.92 -45.91,-13.09l-40.87 -71.39c-4.78,-8.37 -5.52,-17.86 -2.81,-26.25z"></path> <path fill="#FDAD9B" fill-rule="nonzero" d="M6508.73 5574.01c2.47,-7.67 7.82,-14.45 15.53,-18.65 16.2,-8.77 36.75,-2.91 45.91,13.1l40.87 71.39c9.13,16 3.45,36.11 -12.73,44.89 -16.19,8.78 -36.75,2.92 -45.91,-13.09l-40.87 -71.39c-4.78,-8.37 -5.51,-17.86 -2.81,-26.25z"></path> <path fill="#FDAD9B" fill-rule="nonzero" d="M6452.75 5579.33c2.47,-7.67 7.81,-14.45 15.53,-18.64 16.2,-8.78 36.75,-2.93 45.91,13.07l40.87 71.39c9.13,16 3.45,36.11 -12.73,44.9 -16.2,8.78 -36.75,2.92 -45.91,-13.1l-40.87 -71.37c-4.78,-8.37 -5.51,-17.87 -2.81,-26.26z"></path> <path fill="#FDAD9B" fill-rule="nonzero" d="M6409.84 5602.19c1.54,-4.77 4.74,-9.04 9.42,-11.88 10.47,-6.37 24.34,-3.13 30.98,7.25l42.7 66.85c6.65,10.38 3.54,23.95 -6.96,30.32 -10.48,6.37 -24.36,3.12 -30.98,-7.25l-42.71 -66.85c-3.69,-5.76 -4.37,-12.49 -2.45,-18.44z"></path> <path fill="#66192D" fill-rule="nonzero" d="M5664.46 5598.5l7.26 -2.01c-19.23,-69.6 -83.69,-156.49 -84.32,-157.37l-6.02 4.51c0.64,0.85 64.25,86.66 83.09,154.88z"></path> <path fill="#66192D" fill-rule="nonzero" d="M5061.89 7644.24c0.51,-3.17 51.44,-319.05 86.36,-431.72 34.58,-111.55 183.51,-205.4 185.01,-206.33l-3.97 -6.38c-1.53,0.95 -152.8,96.25 -188.21,210.48 -35.08,113.17 -86.08,429.57 -86.59,432.76l7.41 1.19z"></path> <polygon fill="#22A59A" fill-rule="nonzero" points="6106.02,9371.74 7682.14,9470.63 7682.14,7996.82 6106.02,7866.08 "></polygon> <polygon fill="#22A59A" fill-rule="nonzero" points="7682.14,9470.63 10231.59,9168.64 10231.59,7866.08 7682.14,7996.82 "></polygon> <path fill="#22A59A" fill-rule="nonzero" d="M10231.6 7866.08c0,0 214.95,198.85 229.97,203.87 15.04,5 -2410.46,305.7 -2410.46,305.7l-368.96 -378.83 2549.45 -130.74z"></path> <polygon fill="#22A59A" fill-rule="nonzero" points="6106.02,7866.08 5921.26,8120.86 7394.62,8375.65 7682.14,7996.82 "></polygon> <path fill="#333333" fill-rule="nonzero" d="M7394.63 8386.77c3.44,0 6.72,-1.59 8.87,-4.39l279.72 -368.5 359.92 369.5c2.44,2.49 6.03,2.98 9.37,3.29l2180.5 -273.88c6.07,-0.8 10.42,-6.38 9.66,-12.46 -0.81,-5.98 -5.34,-9.78 -12.47,-9.68l-2175.01 273.19 -365.06 -374.78c-2.24,-2.4 -5.28,-4.89 -8.67,-3.3 -3.24,0.19 -6.23,1.8 -8.17,4.29l-283.46 373.39 -1281.92 -221.64c-6.39,-0.9 -11.82,3.09 -12.86,9.06 -1.05,6.09 2.99,11.87 9.07,12.87l1288.61 222.83c0.64,0.1 1.23,0.2 1.89,0.2z"></path> <path fill="#4D4D4D" fill-rule="nonzero" d="M8725.06 3479.9l0 0c57.52,17.26 118.14,-15.35 135.42,-72.87l183.67 -611.77c17.26,-57.51 -15.37,-118.13 -72.88,-135.41 -57.52,-17.26 -118.13,15.37 -135.4,72.88l-183.68 611.77c-17.25,57.51 15.36,118.13 72.87,135.4z"></path> <path fill="#4D4D4D" fill-rule="nonzero" d="M8470.97 2649.54l892.01 267.81c71.99,21.62 147.87,-19.22 169.48,-91.21l64.61 -215.17 -1152.7 -346.09 -64.6 215.17c-21.61,72 19.22,147.88 91.21,169.49z"></path> <polygon fill="#FF443C" fill-rule="nonzero" points="8444.37,2264.88 9597.07,2610.98 9648.94,2438.21 8496.23,2092.13 "></polygon> <path fill="#F9AEA6" fill-rule="nonzero" d="M8496.23 2092.13c0,0 22.86,-179.04 87.63,-349.47 56.73,-149.27 219.31,-229.23 372.26,-183.3l826.04 248.01c96.7,29.04 133.64,146.61 70.63,225.51 -88.1,110.33 -186.74,262.18 -203.85,405.34l-1152.71 -346.09z"></path> <path fill="#FDAD9B" fill-rule="nonzero" d="M11398.72 4870.97l0 0c14.92,-1.21 28.13,10.01 29.34,24.92l18.87 231.62c1.21,14.92 -10,28.13 -24.91,29.34 -14.93,1.22 -28.14,-10 -29.35,-24.92l-18.87 -231.62c-1.21,-14.91 9.99,-28.13 24.92,-29.34z"></path> <path fill="#FDAD9B" fill-rule="nonzero" d="M11329.26 4876.63l0 0c14.92,-1.21 28.13,9.99 29.34,24.92l21.11 259.03c1.21,14.92 -10.01,28.12 -24.92,29.34 -14.94,1.22 -28.14,-10 -29.35,-24.92l-21.1 -259.04c-1.22,-14.92 10,-28.13 24.92,-29.34z"></path> <path fill="#FDAD9B" fill-rule="nonzero" d="M11299.61 4743.34l8.03 5.39c15.04,10.08 19.08,30.64 9.01,45.67l-98.23 146.45c-10.08,15.03 -30.64,19.09 -45.67,9.01l-8.05 -5.39c-15.03,-10.09 -19.09,-30.64 -9.01,-45.67l98.23 -146.46c10.09,-15.03 30.64,-19.07 45.68,-9z"></path> <path fill="#FDAD9B" fill-rule="nonzero" d="M11259.8 4882.28l0 0c14.93,-1.21 28.13,10 29.35,24.92l16.92 207.64c1.2,14.93 -10,28.13 -24.92,29.35 -14.92,1.2 -28.12,-10.01 -29.34,-24.93l-16.92 -207.64c-1.21,-14.92 10.01,-28.13 24.92,-29.34z"></path> <path fill="#FDAD9B" fill-rule="nonzero" d="M11435.1 4735.22c0,0 89.41,127.32 57.42,233.12 -11.06,36.62 -215.99,47.66 -237.85,10.79 -21.86,-36.86 -19.61,-178.21 -19.61,-178.21l200.04 -65.69z"></path> <path fill="#FDAD9B" fill-rule="nonzero" d="M11467.68 4865.15l0 0c14.89,-1.21 28.07,9.98 29.29,24.86l16.89 207.21c1.21,14.89 -9.98,28.06 -24.88,29.28 -14.9,1.22 -28.06,-9.97 -29.29,-24.86l-16.88 -207.2c-1.21,-14.9 9.98,-28.07 24.87,-29.29z"></path> <path fill="#FDAD9B" fill-rule="nonzero" d="M8769.68 3263.85l-6.16 4.37c-10.52,7.45 -25.24,4.95 -32.7,-5.57l-82.56 -116.44c-7.45,-10.51 -4.95,-25.24 5.58,-32.7l6.14 -4.36c10.52,-7.46 25.24,-4.96 32.7,5.56l82.56 116.44c7.46,10.52 4.95,25.23 -5.57,32.7z"></path> <path fill="#FDAD9B" fill-rule="nonzero" d="M8826.13 3223.81l-5.37 3.81c-10.74,7.62 -25.75,5.06 -33.36,-5.67l-107.47 -151.57c-7.62,-10.73 -5.05,-25.74 5.69,-33.36l5.36 -3.81c10.74,-7.61 25.76,-5.06 33.36,5.67l107.48 151.56c7.61,10.74 5.06,25.75 -5.68,33.36z"></path> <path fill="#FDAD9B" fill-rule="nonzero" d="M8916.96 3325.21l-9.66 -0.53c-18.07,-1.01 -32.04,-16.61 -31.04,-34.68l9.74 -176.07c1.01,-18.07 16.61,-32.05 34.69,-31.05l9.66 0.53c18.08,1.01 32.06,16.62 31.05,34.69l-9.75 176.07c-1,18.07 -16.61,32.05 -34.69,31.04z"></path> <path fill="#FDAD9B" fill-rule="nonzero" d="M8880.29 3185.41l0 0c-12.21,8.66 -29.29,5.76 -37.95,-6.46l-120.51 -169.93c-8.66,-12.22 -5.75,-29.28 6.46,-37.95 12.22,-8.66 29.3,-5.76 37.96,6.46l120.5 169.93c8.67,12.22 5.76,29.29 -6.46,37.95z"></path> <path fill="#FDAD9B" fill-rule="nonzero" d="M8804.59 3401.34c0,0 -141.87,-63.85 -168.34,-171.17 -9.17,-37.14 130.44,-191.55 168.05,-170.99 37.61,20.56 138.82,183.61 138.82,183.61l-138.52 158.56z"></path> <path fill="#FDAD9B" fill-rule="nonzero" d="M8714.19 3303.44l-7.85 5.57c-10.03,7.12 -24.05,4.72 -31.17,-5.31l-66.43 -93.67c-7.11,-10.04 -4.72,-24.06 5.31,-31.17l7.85 -5.57c10.03,-7.11 24.05,-4.72 31.17,5.31l66.43 93.68c7.11,10.04 4.72,24.06 -5.31,31.17z"></path> <path fill="#FDAD9B" fill-rule="nonzero" d="M11200.37 4830.52c-105.3,-284.76 -278.74,-685.71 -507.17,-978.68 -52.93,-67.88 -74.13,-93.02 -110.56,-128.04 -29.33,-28.2 -13.04,-111.94 34.64,-162.63 44.74,-47.59 129.77,-64.72 147.42,-51.91 30,21.81 68.39,68.72 128.61,143.41 209.21,259.52 389.61,619.01 553.46,1101.03l-246.4 76.83z"></path> <g id="_2093389095856"> <image x="11025.41" y="4040.39" width="99.86" height="116.48" xlink:href="doare doação - Ilustração-site_Images\doare doação - Ilustração-site_ImgID4.png"></image> </g> <path fill="#FDAD9B" fill-rule="nonzero" d="M10107.23 3386.89l-31.51 -136.88 -9.16 -39.85 -53.91 -234.3 -26.28 227.13 -15.76 136.33 -4.99 43.16c-3.38,29.28 -21.75,34.13 -45.45,58.03 -9.6,9.69 -70.79,68.22 -8.76,101.32 77.27,41.26 230.61,-1.1 292.61,-66.88 -0.44,-0.13 -86.6,-43.81 -96.79,-88.05z"></path> <path fill="#FDAD9B" fill-rule="nonzero" d="M9817.28 3020.63c27.64,-133.07 139.52,-222.37 249.89,-199.45 110.36,22.93 177.42,149.39 149.76,282.47 -27.63,133.07 -139.51,222.37 -249.87,199.44 -110.38,-22.92 -177.43,-149.38 -149.78,-282.46z"></path> <path fill="#333333" fill-rule="nonzero" d="M9908.87 2968.13c-116.7,-4.29 -168.14,-75.64 -164.86,-137.9 4.22,-79.85 59.67,-146.74 115.92,-112.76 56.24,33.99 36.57,-40.55 93.34,-44.08 106.11,-6.6 120.25,69.56 205.94,79.6 113.02,13.23 228.24,211.77 122.96,342.58 0,0 -281.15,-124.06 -373.3,-127.45z"></path> <path fill="#333333" fill-rule="nonzero" d="M9811.24 2880.01c0,0 115.42,128.97 94.01,195.11 -21.42,66.15 -19.23,92.84 50.72,134.17 69.94,41.33 1.47,94.91 97.94,106.33 96.46,11.42 223.53,-94.13 237.48,-282.12 7.79,-104.83 -47.31,-177.88 -47.31,-177.88l-432.84 24.4z"></path> <path fill="#FDAD9B" fill-rule="nonzero" d="M9842.7 3067.48c15.58,-18.94 41.93,-23.01 58.86,-9.09 16.92,13.92 18.02,40.56 2.45,59.5 -15.58,18.94 -41.93,23.01 -58.86,9.09 -16.93,-13.92 -18.02,-40.55 -2.45,-59.5z"></path> <path fill="#66192D" fill-rule="nonzero" d="M10257.64 3068.85c0.34,0 0.7,-0.06 1.06,-0.19 1.55,-0.58 2.34,-2.32 1.75,-3.86 -10.06,-26.87 -37.62,-38.54 -38.79,-39.02 -1.53,-0.65 -3.29,0.1 -3.92,1.62 -0.65,1.54 0.09,3.3 1.62,3.94 0.26,0.1 26.33,11.17 35.46,35.56 0.45,1.21 1.6,1.95 2.82,1.95z"></path> <path fill="#66192D" fill-rule="nonzero" d="M10218.48 3017.09c0.2,0 0.4,-0.02 0.6,-0.07 0.36,-0.08 35.77,-7.63 37.04,-37.12 0.08,-1.67 -1.21,-3.07 -2.86,-3.14 -1.69,-0.09 -3.06,1.21 -3.14,2.87 -1.07,24.86 -31.93,31.43 -32.24,31.5 -1.62,0.33 -2.68,1.92 -2.34,3.55 0.29,1.43 1.55,2.41 2.95,2.41z"></path> <path fill="#333333" fill-rule="nonzero" d="M9879.34 2714.06c3.27,0 6.42,-0.85 9.41,-2.57 16.27,-9.29 21.97,-41.45 22.21,-42.82 0.27,-1.64 -0.82,-3.19 -2.47,-3.47 -1.61,-0.3 -3.18,0.82 -3.48,2.46 -0.04,0.3 -5.44,30.72 -19.26,38.61 -3.69,2.1 -7.59,2.34 -11.96,0.67 -8.59,-3.25 -15.05,-8.48 -21.3,-13.54 -12.35,-10.01 -25.13,-20.34 -52.82,-13.63 -1.62,0.39 -2.61,2.01 -2.21,3.63 0.38,1.61 2.01,2.6 3.62,2.21 24.79,-6.02 35.38,2.55 47.63,12.47 6.63,5.36 13.47,10.91 22.95,14.5 2.62,0.98 5.17,1.48 7.67,1.48z"></path> <path fill="#333333" fill-rule="nonzero" d="M10157.33 2742.66c2.33,0 4.69,-0.09 7.08,-0.3 1.66,-0.15 2.88,-1.6 2.75,-3.25 -0.15,-1.66 -1.68,-2.82 -3.25,-2.73 -45.07,3.89 -80.42,-34.44 -80.76,-34.83 -1.13,-1.22 -3.03,-1.31 -4.25,-0.19 -1.23,1.12 -1.33,3.01 -0.22,4.23 1.46,1.59 34.26,37.07 78.66,37.07z"></path> <path fill="#66192D" fill-rule="nonzero" d="M9871.37 3137.57c10.1,0 25.73,-4.35 39.16,-26.8 0.43,-0.7 0.18,-1.58 -0.49,-1.98 -0.68,-0.42 -1.59,-0.18 -1.99,0.5 -20.46,34.21 -45.05,24.32 -46.08,23.89 -0.74,-0.32 -1.58,0.03 -1.9,0.75 -0.32,0.75 0.03,1.59 0.76,1.91 0.1,0.04 4.25,1.73 10.55,1.73z"></path> <path fill="#FDAD9B" fill-rule="nonzero" d="M8781.91 3385.48c-23.39,-56.46 158.31,-153.62 158.31,-153.62 19.88,-4.28 172.88,345.77 504.7,376.76 118.17,11.06 339.4,-110.41 361.25,-133.1 2.91,-3.02 197.19,176.92 197.19,176.92 -39.56,41.09 -126.96,187.09 -282.79,242.89 -322.35,115.43 -846.14,-130.67 -938.66,-509.85z"></path> <path fill="#333333" fill-rule="nonzero" d="M10219.58 7177.99c0,0 -2.16,85.98 -60.35,110.25 -58.16,24.24 -226.74,46.13 -163.75,101.41 36.13,31.71 206.48,11.22 254.56,11.22 48.09,0 93.25,20.96 128.99,-11.22 39.31,-35.41 0,-211.65 0,-211.65 0,0 -41.5,21.62 -78.83,20.66 -53.78,-1.4 -80.62,-20.66 -80.62,-20.66z"></path> <path fill="#22A59A" fill-rule="nonzero" d="M9717.64 4583.24c0,0 -11.61,388.02 112.22,1132.39 89.39,537.37 194.92,1078.88 246.71,1338.48 18.52,92.86 96.62,160.77 189.19,164.48l49.74 1.99c100.07,4.01 181.3,-81.96 174.01,-184.16l-125.62 -1756.33 -30.95 -578.07 -615.29 -118.78z"></path> <path fill="#333333" fill-rule="nonzero" d="M10770.59 7177.99c0,0 -2.16,85.98 -60.34,110.25 -58.16,24.24 -226.74,46.13 -163.76,101.41 36.14,31.71 206.48,11.22 254.57,11.22 48.09,0 93.25,20.96 128.98,-11.22 39.32,-35.41 0,-211.65 0,-211.65 0,0 -41.5,21.62 -78.82,20.66 -53.78,-1.4 -80.63,-20.66 -80.63,-20.66z"></path> <path fill="#22A59A" fill-rule="nonzero" d="M10268.64 4583.24c0,0 -11.6,388.02 112.23,1132.39 89.39,537.37 194.92,1078.88 246.71,1338.48 18.52,92.86 96.62,160.77 189.18,164.48l49.74 1.99c100.08,4.01 181.31,-81.96 174.01,-184.16l-125.62 -1756.33 -30.95 -578.07 -615.29 -118.78z"></path> <path fill="#FF443C" fill-rule="nonzero" d="M10653.89 3568.37c0,0 -95.47,-234.37 -548.16,-173.25 -652.83,88.16 -508.16,679.06 -440.46,1598.46 0,0 629.77,-181.21 1256.72,-136.14 0,0 -74.26,-937.71 -268.11,-1289.07z"></path> <path fill="#FF443C" fill-rule="nonzero" d="M10906.24 3558.14c0,0 -77.67,255.65 -281.89,330.82 -194.08,71.44 -875.28,194.45 -1018.38,92.42 -315.89,-225.22 -140.22,-532.65 -140.22,-532.65 0,0 179.16,73.28 482.93,-20.95 28.53,-8.9 58.34,-16.67 89.46,-23.13 52.25,-10.81 105.21,-16.21 157.59,-18.96 482.41,-25.43 710.51,172.46 710.51,172.46z"></path> <path fill="#F9AEA6" fill-rule="nonzero" d="M10923.28 4868.89c5.32,46.52 -272.4,104.34 -620.64,142.27 -348.24,37.93 -632.04,28.94 -637.36,-17.58 -5.34,-46.53 269.81,-112.97 618.05,-150.9 348.24,-37.92 634.62,-20.3 639.95,26.22z"></path> <path fill="#66192D" fill-rule="nonzero" d="M10406.66 5881.84c0.22,0 0.44,-0.02 0.67,-0.06 2.04,-0.37 3.39,-2.32 3.02,-4.37 -71.5,-393.67 123.25,-646.59 125.22,-649.1 1.28,-1.64 1,-3.99 -0.63,-5.28 -1.64,-1.28 -3.99,-0.99 -5.27,0.63 -2,2.54 -198.81,258.13 -126.71,655.1 0.33,1.82 1.91,3.08 3.7,3.08z"></path> </g> </svg> 